<svg width="269" height="71" viewBox="0 0 269 71" fill="none" xmlns="http://www.w3.org/2000/svg">
<path d="M11.8 48V18.5H0.2V13H29.9V18.5H18.3V48H11.8ZM40.7781 27.55H58.1781V32.9H40.7781V27.55ZM41.2781 42.55H61.0281V48H34.7781V13H60.3281V18.45H41.2781V42.55ZM68.2742 48V13H83.5742C87.3742 13 90.7076 13.7333 93.5742 15.2C96.4409 16.6667 98.6742 18.7 100.274 21.3C101.874 23.9 102.674 26.9667 102.674 30.5C102.674 34 101.874 37.0667 100.274 39.7C98.6742 42.3 96.4409 44.3333 93.5742 45.8C90.7076 47.2667 87.3742 48 83.5742 48H68.2742ZM74.7742 42.5H83.2742C85.9076 42.5 88.1742 42 90.0742 41C92.0076 40 93.4909 38.6 94.5242 36.8C95.5909 35 96.1242 32.9 96.1242 30.5C96.1242 28.0667 95.5909 25.9667 94.5242 24.2C93.4909 22.4 92.0076 21 90.0742 20C88.1742 19 85.9076 18.5 83.2742 18.5H74.7742V42.5Z" fill="#EB0028"/>
<path d="M153.9 48.4C151.233 48.4 148.767 47.9667 146.5 47.1C144.267 46.2 142.317 44.95 140.65 43.35C139.017 41.7167 137.733 39.8167 136.8 37.65C135.867 35.4833 135.4 33.1 135.4 30.5C135.4 27.9 135.867 25.5167 136.8 23.35C137.733 21.1833 139.033 19.3 140.7 17.7C142.367 16.0667 144.317 14.8167 146.55 13.95C148.817 13.05 151.283 12.6 153.95 12.6C156.65 12.6 159.133 13.0667 161.4 14C163.7 14.9 165.65 16.25 167.25 18.05L164 21.2C162.667 19.8 161.167 18.7667 159.5 18.1C157.833 17.4 156.05 17.05 154.15 17.05C152.183 17.05 150.35 17.3833 148.65 18.05C146.983 18.7167 145.533 19.65 144.3 20.85C143.067 22.05 142.1 23.4833 141.4 25.15C140.733 26.7833 140.4 28.5667 140.4 30.5C140.4 32.4333 140.733 34.2333 141.4 35.9C142.1 37.5333 143.067 38.95 144.3 40.15C145.533 41.35 146.983 42.2833 148.65 42.95C150.35 43.6167 152.183 43.95 154.15 43.95C156.05 43.95 157.833 43.6167 159.5 42.95C161.167 42.25 162.667 41.1833 164 39.75L167.25 42.9C165.65 44.7 163.7 46.0667 161.4 47C159.133 47.9333 156.633 48.4 153.9 48.4ZM189.3 48.4C186.634 48.4 184.167 47.9667 181.9 47.1C179.667 46.2 177.717 44.95 176.05 43.35C174.417 41.7167 173.134 39.8167 172.2 37.65C171.267 35.4833 170.8 33.1 170.8 30.5C170.8 27.9 171.267 25.5167 172.2 23.35C173.134 21.1833 174.434 19.3 176.1 17.7C177.767 16.0667 179.717 14.8167 181.95 13.95C184.217 13.05 186.684 12.6 189.35 12.6C192.05 12.6 194.534 13.0667 196.8 14C199.1 14.9 201.05 16.25 202.65 18.05L199.4 21.2C198.067 19.8 196.567 18.7667 194.9 18.1C193.234 17.4 191.45 17.05 189.55 17.05C187.584 17.05 185.75 17.3833 184.05 18.05C182.384 18.7167 180.934 19.65 179.7 20.85C178.467 22.05 177.5 23.4833 176.8 25.15C176.134 26.7833 175.8 28.5667 175.8 30.5C175.8 32.4333 176.134 34.2333 176.8 35.9C177.5 37.5333 178.467 38.95 179.7 40.15C180.934 41.35 182.384 42.2833 184.05 42.95C185.75 43.6167 187.584 43.95 189.55 43.95C191.45 43.95 193.234 43.6167 194.9 42.95C196.567 42.25 198.067 41.1833 199.4 39.75L202.65 42.9C201.05 44.7 199.1 46.0667 196.8 47C194.534 47.9333 192.034 48.4 189.3 48.4ZM214.333 28.1H232.333V32.35H214.333V28.1ZM214.783 43.65H235.183V48H209.783V13H234.483V17.35H214.783V43.65ZM250.229 48V17.35H238.229V13H267.179V17.35H255.179V48H250.229Z" fill="white"/>
<path d="M104.95 31L112.6 20.375L112.575 23.9L105.225 13.5H110.8L115.5 20.275L113.125 20.3L117.75 13.5H123.1L115.75 23.7V20.2L123.5 31H117.8L113.025 23.875H115.3L110.6 31H104.95Z" fill="#EB0028"/>
<path d="M0.108 68L3.648 63.128V64.304L0.276 59.6H2.04L4.548 63.08L3.828 63.092L6.312 59.6H8.004L4.656 64.22V63.092L8.22 68H6.42L3.78 64.304H4.488L1.884 68H0.108Z" fill="#EB0028"/>
<path d="M11.804 62.852V61.904H17.18V62.852H11.804ZM11.804 65.696V64.748H17.18V65.696H11.804ZM23.259 68V61.64H24.411V68H23.259ZM23.835 60.416C23.611 60.416 23.423 60.344 23.271 60.2C23.127 60.056 23.055 59.88 23.055 59.672C23.055 59.456 23.127 59.276 23.271 59.132C23.423 58.988 23.611 58.916 23.835 58.916C24.059 58.916 24.243 58.988 24.387 59.132C24.539 59.268 24.615 59.44 24.615 59.648C24.615 59.864 24.543 60.048 24.399 60.2C24.255 60.344 24.067 60.416 23.835 60.416ZM30.4866 61.58C31.0066 61.58 31.4626 61.68 31.8546 61.88C32.2546 62.08 32.5666 62.384 32.7906 62.792C33.0146 63.2 33.1266 63.716 33.1266 64.34V68H31.9746V64.472C31.9746 63.856 31.8226 63.392 31.5186 63.08C31.2226 62.768 30.8026 62.612 30.2586 62.612C29.8506 62.612 29.4946 62.692 29.1906 62.852C28.8866 63.012 28.6506 63.248 28.4826 63.56C28.3226 63.872 28.2426 64.26 28.2426 64.724V68H27.0906V61.64H28.1946V63.356L28.0146 62.9C28.2226 62.484 28.5426 62.16 28.9746 61.928C29.4066 61.696 29.9106 61.58 30.4866 61.58ZM38.3666 68.072C37.7506 68.072 37.1986 67.936 36.7106 67.664C36.2306 67.392 35.8506 67.012 35.5706 66.524C35.2906 66.036 35.1506 65.468 35.1506 64.82C35.1506 64.172 35.2906 63.608 35.5706 63.128C35.8506 62.64 36.2306 62.26 36.7106 61.988C37.1986 61.716 37.7506 61.58 38.3666 61.58C38.9026 61.58 39.3866 61.7 39.8186 61.94C40.2506 62.18 40.5946 62.54 40.8506 63.02C41.1146 63.5 41.2466 64.1 41.2466 64.82C41.2466 65.54 41.1186 66.14 40.8626 66.62C40.6146 67.1 40.2746 67.464 39.8426 67.712C39.4106 67.952 38.9186 68.072 38.3666 68.072ZM38.4626 67.064C38.8626 67.064 39.2226 66.972 39.5426 66.788C39.8706 66.604 40.1266 66.344 40.3106 66.008C40.5026 65.664 40.5986 65.268 40.5986 64.82C40.5986 64.364 40.5026 63.972 40.3106 63.644C40.1266 63.308 39.8706 63.048 39.5426 62.864C39.2226 62.68 38.8626 62.588 38.4626 62.588C38.0546 62.588 37.6906 62.68 37.3706 62.864C37.0506 63.048 36.7946 63.308 36.6026 63.644C36.4106 63.972 36.3146 64.364 36.3146 64.82C36.3146 65.268 36.4106 65.664 36.6026 66.008C36.7946 66.344 37.0506 66.604 37.3706 66.788C37.6906 66.972 38.0546 67.064 38.4626 67.064ZM40.6346 68V66.284L40.7066 64.808L40.5866 63.332V59.096H41.7386V68H40.6346ZM47.2303 68.072C46.5503 68.072 45.9503 67.932 45.4303 67.652C44.9183 67.372 44.5183 66.988 44.2303 66.5C43.9503 66.012 43.8103 65.452 43.8103 64.82C43.8103 64.188 43.9463 63.628 44.2183 63.14C44.4983 62.652 44.8783 62.272 45.3583 62C45.8463 61.72 46.3943 61.58 47.0023 61.58C47.6183 61.58 48.1623 61.716 48.6343 61.988C49.1063 62.26 49.4743 62.644 49.7383 63.14C50.0103 63.628 50.1463 64.2 50.1463 64.856C50.1463 64.904 50.1423 64.96 50.1343 65.024C50.1343 65.088 50.1303 65.148 50.1223 65.204H44.7103V64.376H49.5223L49.0543 64.664C49.0623 64.256 48.9783 63.892 48.8023 63.572C48.6263 63.252 48.3823 63.004 48.0703 62.828C47.7663 62.644 47.4103 62.552 47.0023 62.552C46.6023 62.552 46.2463 62.644 45.9343 62.828C45.6223 63.004 45.3783 63.256 45.2023 63.584C45.0263 63.904 44.9383 64.272 44.9383 64.688V64.88C44.9383 65.304 45.0343 65.684 45.2263 66.02C45.4263 66.348 45.7023 66.604 46.0543 66.788C46.4063 66.972 46.8103 67.064 47.2663 67.064C47.6423 67.064 47.9823 67 48.2863 66.872C48.5983 66.744 48.8703 66.552 49.1023 66.296L49.7383 67.04C49.4503 67.376 49.0903 67.632 48.6583 67.808C48.2343 67.984 47.7583 68.072 47.2303 68.072ZM55.5979 68.072C55.0699 68.072 54.5859 67.952 54.1459 67.712C53.7139 67.464 53.3659 67.1 53.1019 66.62C52.8459 66.14 52.7179 65.54 52.7179 64.82C52.7179 64.1 52.8419 63.5 53.0899 63.02C53.3459 62.54 53.6899 62.18 54.1219 61.94C54.5619 61.7 55.0539 61.58 55.5979 61.58C56.2219 61.58 56.7739 61.716 57.2539 61.988C57.7339 62.26 58.1139 62.64 58.3939 63.128C58.6739 63.608 58.8139 64.172 58.8139 64.82C58.8139 65.468 58.6739 66.036 58.3939 66.524C58.1139 67.012 57.7339 67.392 57.2539 67.664C56.7739 67.936 56.2219 68.072 55.5979 68.072ZM52.2259 70.328V61.64H53.3299V63.356L53.2579 64.832L53.3779 66.308V70.328H52.2259ZM55.5019 67.064C55.9099 67.064 56.2739 66.972 56.5939 66.788C56.9219 66.604 57.1779 66.344 57.3619 66.008C57.5539 65.664 57.6499 65.268 57.6499 64.82C57.6499 64.364 57.5539 63.972 57.3619 63.644C57.1779 63.308 56.9219 63.048 56.5939 62.864C56.2739 62.68 55.9099 62.588 55.5019 62.588C55.1019 62.588 54.7379 62.68 54.4099 62.864C54.0899 63.048 53.8339 63.308 53.6419 63.644C53.4579 63.972 53.3659 64.364 53.3659 64.82C53.3659 65.268 53.4579 65.664 53.6419 66.008C53.8339 66.344 54.0899 66.604 54.4099 66.788C54.7379 66.972 55.1019 67.064 55.5019 67.064ZM63.7176 68.072C63.0376 68.072 62.4376 67.932 61.9176 67.652C61.4056 67.372 61.0056 66.988 60.7176 66.5C60.4376 66.012 60.2976 65.452 60.2976 64.82C60.2976 64.188 60.4336 63.628 60.7056 63.14C60.9856 62.652 61.3656 62.272 61.8456 62C62.3336 61.72 62.8816 61.58 63.4896 61.58C64.1056 61.58 64.6496 61.716 65.1216 61.988C65.5936 62.26 65.9616 62.644 66.2256 63.14C66.4976 63.628 66.6336 64.2 66.6336 64.856C66.6336 64.904 66.6296 64.96 66.6216 65.024C66.6216 65.088 66.6176 65.148 66.6096 65.204H61.1976V64.376H66.0096L65.5416 64.664C65.5496 64.256 65.4656 63.892 65.2896 63.572C65.1136 63.252 64.8696 63.004 64.5576 62.828C64.2536 62.644 63.8976 62.552 63.4896 62.552C63.0896 62.552 62.7336 62.644 62.4216 62.828C62.1096 63.004 61.8656 63.256 61.6896 63.584C61.5136 63.904 61.4256 64.272 61.4256 64.688V64.88C61.4256 65.304 61.5216 65.684 61.7136 66.02C61.9136 66.348 62.1896 66.604 62.5416 66.788C62.8936 66.972 63.2976 67.064 63.7536 67.064C64.1296 67.064 64.4696 67 64.7736 66.872C65.0856 66.744 65.3576 66.552 65.5896 66.296L66.2256 67.04C65.9376 67.376 65.5776 67.632 65.1456 67.808C64.7216 67.984 64.2456 68.072 63.7176 68.072ZM72.1093 61.58C72.6293 61.58 73.0853 61.68 73.4773 61.88C73.8773 62.08 74.1893 62.384 74.4133 62.792C74.6373 63.2 74.7493 63.716 74.7493 64.34V68H73.5973V64.472C73.5973 63.856 73.4453 63.392 73.1413 63.08C72.8453 62.768 72.4253 62.612 71.8813 62.612C71.4733 62.612 71.1173 62.692 70.8133 62.852C70.5093 63.012 70.2733 63.248 70.1053 63.56C69.9453 63.872 69.8653 64.26 69.8653 64.724V68H68.7133V61.64H69.8173V63.356L69.6373 62.9C69.8453 62.484 70.1653 62.16 70.5973 61.928C71.0293 61.696 71.5333 61.58 72.1093 61.58ZM79.9892 68.072C79.3732 68.072 78.8212 67.936 78.3332 67.664C77.8532 67.392 77.4732 67.012 77.1932 66.524C76.9132 66.036 76.7732 65.468 76.7732 64.82C76.7732 64.172 76.9132 63.608 77.1932 63.128C77.4732 62.64 77.8532 62.26 78.3332 61.988C78.8212 61.716 79.3732 61.58 79.9892 61.58C80.5252 61.58 81.0092 61.7 81.4412 61.94C81.8732 62.18 82.2172 62.54 82.4732 63.02C82.7372 63.5 82.8692 64.1 82.8692 64.82C82.8692 65.54 82.7412 66.14 82.4852 66.62C82.2372 67.1 81.8972 67.464 81.4652 67.712C81.0332 67.952 80.5412 68.072 79.9892 68.072ZM80.0852 67.064C80.4852 67.064 80.8452 66.972 81.1652 66.788C81.4932 66.604 81.7492 66.344 81.9332 66.008C82.1252 65.664 82.2212 65.268 82.2212 64.82C82.2212 64.364 82.1252 63.972 81.9332 63.644C81.7492 63.308 81.4932 63.048 81.1652 62.864C80.8452 62.68 80.4852 62.588 80.0852 62.588C79.6772 62.588 79.3132 62.68 78.9932 62.864C78.6732 63.048 78.4172 63.308 78.2252 63.644C78.0332 63.972 77.9372 64.364 77.9372 64.82C77.9372 65.268 78.0332 65.664 78.2252 66.008C78.4172 66.344 78.6732 66.604 78.9932 66.788C79.3132 66.972 79.6772 67.064 80.0852 67.064ZM82.2572 68V66.284L82.3292 64.808L82.2092 63.332V59.096H83.3612V68H82.2572ZM88.8529 68.072C88.1729 68.072 87.5729 67.932 87.0529 67.652C86.5409 67.372 86.1409 66.988 85.8529 66.5C85.5729 66.012 85.4329 65.452 85.4329 64.82C85.4329 64.188 85.5689 63.628 85.8409 63.14C86.1209 62.652 86.5009 62.272 86.9809 62C87.4689 61.72 88.0169 61.58 88.6249 61.58C89.2409 61.58 89.7849 61.716 90.2569 61.988C90.7289 62.26 91.0969 62.644 91.3609 63.14C91.6329 63.628 91.7689 64.2 91.7689 64.856C91.7689 64.904 91.7649 64.96 91.7569 65.024C91.7569 65.088 91.7529 65.148 91.7449 65.204H86.3329V64.376H91.1449L90.6769 64.664C90.6849 64.256 90.6009 63.892 90.4249 63.572C90.2489 63.252 90.0049 63.004 89.6929 62.828C89.3889 62.644 89.0329 62.552 88.6249 62.552C88.2249 62.552 87.8689 62.644 87.5569 62.828C87.2449 63.004 87.0009 63.256 86.8249 63.584C86.6489 63.904 86.5609 64.272 86.5609 64.688V64.88C86.5609 65.304 86.6569 65.684 86.8489 66.02C87.0489 66.348 87.3249 66.604 87.6769 66.788C88.0289 66.972 88.4329 67.064 88.8889 67.064C89.2649 67.064 89.6049 67 89.9089 66.872C90.2209 66.744 90.4929 66.552 90.7249 66.296L91.3609 67.04C91.0729 67.376 90.7129 67.632 90.2809 67.808C89.8569 67.984 89.3809 68.072 88.8529 68.072ZM97.2446 61.58C97.7646 61.58 98.2206 61.68 98.6126 61.88C99.0126 62.08 99.3246 62.384 99.5486 62.792C99.7726 63.2 99.8846 63.716 99.8846 64.34V68H98.7326V64.472C98.7326 63.856 98.5806 63.392 98.2766 63.08C97.9806 62.768 97.5606 62.612 97.0166 62.612C96.6086 62.612 96.2526 62.692 95.9486 62.852C95.6446 63.012 95.4086 63.248 95.2406 63.56C95.0806 63.872 95.0006 64.26 95.0006 64.724V68H93.8486V61.64H94.9526V63.356L94.7726 62.9C94.9806 62.484 95.3006 62.16 95.7326 61.928C96.1646 61.696 96.6686 61.58 97.2446 61.58ZM104.681 68.072C104.041 68.072 103.545 67.9 103.193 67.556C102.841 67.212 102.665 66.72 102.665 66.08V60.248H103.817V66.032C103.817 66.376 103.901 66.64 104.069 66.824C104.245 67.008 104.493 67.1 104.813 67.1C105.173 67.1 105.473 67 105.713 66.8L106.073 67.628C105.897 67.78 105.685 67.892 105.437 67.964C105.197 68.036 104.945 68.072 104.681 68.072ZM101.585 62.588V61.64H105.641V62.588H101.585ZM107.945 68V59.096H109.097V68H107.945ZM112.053 70.4C111.749 70.4 111.453 70.348 111.165 70.244C110.877 70.148 110.629 70.004 110.421 69.812L110.913 68.948C111.073 69.1 111.249 69.216 111.441 69.296C111.633 69.376 111.837 69.416 112.053 69.416C112.333 69.416 112.565 69.344 112.749 69.2C112.933 69.056 113.105 68.8 113.265 68.432L113.661 67.556L113.781 67.412L116.277 61.64H117.405L114.321 68.636C114.137 69.084 113.929 69.436 113.697 69.692C113.473 69.948 113.225 70.128 112.953 70.232C112.681 70.344 112.381 70.4 112.053 70.4ZM113.565 68.204L110.661 61.64H111.861L114.333 67.304L113.565 68.204ZM125.387 68.072C124.747 68.072 124.179 67.932 123.683 67.652C123.187 67.372 122.795 66.988 122.507 66.5C122.219 66.004 122.075 65.444 122.075 64.82C122.075 64.188 122.219 63.628 122.507 63.14C122.795 62.652 123.187 62.272 123.683 62C124.179 61.72 124.747 61.58 125.387 61.58C126.019 61.58 126.583 61.72 127.079 62C127.583 62.272 127.975 62.652 128.255 63.14C128.543 63.62 128.687 64.18 128.687 64.82C128.687 65.452 128.543 66.012 128.255 66.5C127.975 66.988 127.583 67.372 127.079 67.652C126.583 67.932 126.019 68.072 125.387 68.072ZM125.387 67.064C125.795 67.064 126.159 66.972 126.479 66.788C126.807 66.604 127.063 66.344 127.247 66.008C127.431 65.664 127.523 65.268 127.523 64.82C127.523 64.364 127.431 63.972 127.247 63.644C127.063 63.308 126.807 63.048 126.479 62.864C126.159 62.68 125.795 62.588 125.387 62.588C124.979 62.588 124.615 62.68 124.295 62.864C123.975 63.048 123.719 63.308 123.527 63.644C123.335 63.972 123.239 64.364 123.239 64.82C123.239 65.268 123.335 65.664 123.527 66.008C123.719 66.344 123.975 66.604 124.295 66.788C124.615 66.972 124.979 67.064 125.387 67.064ZM130.76 68V61.64H131.864V63.368L131.756 62.936C131.932 62.496 132.228 62.16 132.644 61.928C133.06 61.696 133.572 61.58 134.18 61.58V62.696C134.132 62.688 134.084 62.684 134.036 62.684C133.996 62.684 133.956 62.684 133.916 62.684C133.3 62.684 132.812 62.868 132.452 63.236C132.092 63.604 131.912 64.136 131.912 64.832V68H130.76ZM138.805 70.4C138.221 70.4 137.653 70.316 137.101 70.148C136.557 69.988 136.113 69.756 135.769 69.452L136.321 68.564C136.617 68.82 136.981 69.02 137.413 69.164C137.845 69.316 138.297 69.392 138.769 69.392C139.521 69.392 140.073 69.216 140.425 68.864C140.777 68.512 140.953 67.976 140.953 67.256V65.912L141.073 64.652L141.013 63.38V61.64H142.105V67.136C142.105 68.256 141.825 69.08 141.265 69.608C140.705 70.136 139.885 70.4 138.805 70.4ZM138.661 67.736C138.045 67.736 137.493 67.608 137.005 67.352C136.525 67.088 136.141 66.724 135.853 66.26C135.573 65.796 135.433 65.26 135.433 64.652C135.433 64.036 135.573 63.5 135.853 63.044C136.141 62.58 136.525 62.22 137.005 61.964C137.493 61.708 138.045 61.58 138.661 61.58C139.205 61.58 139.701 61.692 140.149 61.916C140.597 62.132 140.953 62.468 141.217 62.924C141.489 63.38 141.625 63.956 141.625 64.652C141.625 65.34 141.489 65.912 141.217 66.368C140.953 66.824 140.597 67.168 140.149 67.4C139.701 67.624 139.205 67.736 138.661 67.736ZM138.793 66.728C139.217 66.728 139.593 66.64 139.921 66.464C140.249 66.288 140.505 66.044 140.689 65.732C140.881 65.42 140.977 65.06 140.977 64.652C140.977 64.244 140.881 63.884 140.689 63.572C140.505 63.26 140.249 63.02 139.921 62.852C139.593 62.676 139.217 62.588 138.793 62.588C138.369 62.588 137.989 62.676 137.653 62.852C137.325 63.02 137.065 63.26 136.873 63.572C136.689 63.884 136.597 64.244 136.597 64.652C136.597 65.06 136.689 65.42 136.873 65.732C137.065 66.044 137.325 66.288 137.653 66.464C137.989 66.64 138.369 66.728 138.793 66.728ZM148.734 68V66.656L148.674 66.404V64.112C148.674 63.624 148.53 63.248 148.242 62.984C147.962 62.712 147.538 62.576 146.97 62.576C146.594 62.576 146.226 62.64 145.866 62.768C145.506 62.888 145.202 63.052 144.954 63.26L144.474 62.396C144.802 62.132 145.194 61.932 145.65 61.796C146.114 61.652 146.598 61.58 147.102 61.58C147.974 61.58 148.646 61.792 149.118 62.216C149.59 62.64 149.826 63.288 149.826 64.16V68H148.734ZM146.646 68.072C146.174 68.072 145.758 67.992 145.398 67.832C145.046 67.672 144.774 67.452 144.582 67.172C144.39 66.884 144.294 66.56 144.294 66.2C144.294 65.856 144.374 65.544 144.534 65.264C144.702 64.984 144.97 64.76 145.338 64.592C145.714 64.424 146.218 64.34 146.85 64.34H148.866V65.168H146.898C146.322 65.168 145.934 65.264 145.734 65.456C145.534 65.648 145.434 65.88 145.434 66.152C145.434 66.464 145.558 66.716 145.806 66.908C146.054 67.092 146.398 67.184 146.838 67.184C147.27 67.184 147.646 67.088 147.966 66.896C148.294 66.704 148.53 66.424 148.674 66.056L148.902 66.848C148.75 67.224 148.482 67.524 148.098 67.748C147.714 67.964 147.23 68.072 146.646 68.072ZM155.834 61.58C156.354 61.58 156.81 61.68 157.202 61.88C157.602 62.08 157.914 62.384 158.138 62.792C158.362 63.2 158.474 63.716 158.474 64.34V68H157.322V64.472C157.322 63.856 157.17 63.392 156.866 63.08C156.57 62.768 156.15 62.612 155.606 62.612C155.198 62.612 154.842 62.692 154.538 62.852C154.234 63.012 153.998 63.248 153.83 63.56C153.67 63.872 153.59 64.26 153.59 64.724V68H152.438V61.64H153.542V63.356L153.362 62.9C153.57 62.484 153.89 62.16 154.322 61.928C154.754 61.696 155.258 61.58 155.834 61.58ZM161.086 68V61.64H162.238V68H161.086ZM161.662 60.416C161.438 60.416 161.25 60.344 161.098 60.2C160.954 60.056 160.882 59.88 160.882 59.672C160.882 59.456 160.954 59.276 161.098 59.132C161.25 58.988 161.438 58.916 161.662 58.916C161.886 58.916 162.07 58.988 162.214 59.132C162.366 59.268 162.442 59.44 162.442 59.648C162.442 59.864 162.37 60.048 162.226 60.2C162.082 60.344 161.894 60.416 161.662 60.416ZM164.306 68V67.256L168.386 62.192L168.614 62.588H164.378V61.64H169.538V62.396L165.458 67.448L165.194 67.052H169.634V68H164.306ZM174.394 68.072C173.714 68.072 173.114 67.932 172.594 67.652C172.082 67.372 171.682 66.988 171.394 66.5C171.114 66.012 170.974 65.452 170.974 64.82C170.974 64.188 171.11 63.628 171.382 63.14C171.662 62.652 172.042 62.272 172.522 62C173.01 61.72 173.558 61.58 174.166 61.58C174.782 61.58 175.326 61.716 175.798 61.988C176.27 62.26 176.638 62.644 176.902 63.14C177.174 63.628 177.31 64.2 177.31 64.856C177.31 64.904 177.306 64.96 177.298 65.024C177.298 65.088 177.294 65.148 177.286 65.204H171.874V64.376H176.686L176.218 64.664C176.226 64.256 176.142 63.892 175.966 63.572C175.79 63.252 175.546 63.004 175.234 62.828C174.93 62.644 174.574 62.552 174.166 62.552C173.766 62.552 173.41 62.644 173.098 62.828C172.786 63.004 172.542 63.256 172.366 63.584C172.19 63.904 172.102 64.272 172.102 64.688V64.88C172.102 65.304 172.198 65.684 172.39 66.02C172.59 66.348 172.866 66.604 173.218 66.788C173.57 66.972 173.974 67.064 174.43 67.064C174.806 67.064 175.146 67 175.45 66.872C175.762 66.744 176.034 66.552 176.266 66.296L176.902 67.04C176.614 67.376 176.254 67.632 175.822 67.808C175.398 67.984 174.922 68.072 174.394 68.072ZM182.017 68.072C181.401 68.072 180.849 67.936 180.361 67.664C179.881 67.392 179.501 67.012 179.221 66.524C178.941 66.036 178.801 65.468 178.801 64.82C178.801 64.172 178.941 63.608 179.221 63.128C179.501 62.64 179.881 62.26 180.361 61.988C180.849 61.716 181.401 61.58 182.017 61.58C182.553 61.58 183.037 61.7 183.469 61.94C183.901 62.18 184.245 62.54 184.501 63.02C184.765 63.5 184.897 64.1 184.897 64.82C184.897 65.54 184.769 66.14 184.513 66.62C184.265 67.1 183.925 67.464 183.493 67.712C183.061 67.952 182.569 68.072 182.017 68.072ZM182.113 67.064C182.513 67.064 182.873 66.972 183.193 66.788C183.521 66.604 183.777 66.344 183.961 66.008C184.153 65.664 184.249 65.268 184.249 64.82C184.249 64.364 184.153 63.972 183.961 63.644C183.777 63.308 183.521 63.048 183.193 62.864C182.873 62.68 182.513 62.588 182.113 62.588C181.705 62.588 181.341 62.68 181.021 62.864C180.701 63.048 180.445 63.308 180.253 63.644C180.061 63.972 179.965 64.364 179.965 64.82C179.965 65.268 180.061 65.664 180.253 66.008C180.445 66.344 180.701 66.604 181.021 66.788C181.341 66.972 181.705 67.064 182.113 67.064ZM184.285 68V66.284L184.357 64.808L184.237 63.332V59.096H185.389V68H184.285ZM193.588 68V60.644H190.708V59.6H197.656V60.644H194.776V68H193.588ZM200.535 63.224H204.855V64.244H200.535V63.224ZM200.643 66.956H205.539V68H199.443V59.6H205.371V60.644H200.643V66.956ZM207.962 68V59.6H211.502C212.398 59.6 213.186 59.776 213.866 60.128C214.554 60.48 215.086 60.972 215.462 61.604C215.846 62.236 216.038 62.968 216.038 63.8C216.038 64.632 215.846 65.364 215.462 65.996C215.086 66.628 214.554 67.12 213.866 67.472C213.186 67.824 212.398 68 211.502 68H207.962ZM209.162 66.956H211.43C212.126 66.956 212.726 66.824 213.23 66.56C213.742 66.296 214.138 65.928 214.418 65.456C214.698 64.976 214.838 64.424 214.838 63.8C214.838 63.168 214.698 62.616 214.418 62.144C214.138 61.672 213.742 61.304 213.23 61.04C212.726 60.776 212.126 60.644 211.43 60.644H209.162V66.956ZM224.722 68.072C224.042 68.072 223.442 67.932 222.922 67.652C222.41 67.372 222.01 66.988 221.722 66.5C221.442 66.012 221.302 65.452 221.302 64.82C221.302 64.188 221.438 63.628 221.71 63.14C221.99 62.652 222.37 62.272 222.85 62C223.338 61.72 223.886 61.58 224.494 61.58C225.11 61.58 225.654 61.716 226.126 61.988C226.598 62.26 226.966 62.644 227.23 63.14C227.502 63.628 227.638 64.2 227.638 64.856C227.638 64.904 227.634 64.96 227.626 65.024C227.626 65.088 227.622 65.148 227.614 65.204H222.202V64.376H227.014L226.546 64.664C226.554 64.256 226.47 63.892 226.294 63.572C226.118 63.252 225.874 63.004 225.562 62.828C225.258 62.644 224.902 62.552 224.494 62.552C224.094 62.552 223.738 62.644 223.426 62.828C223.114 63.004 222.87 63.256 222.694 63.584C222.518 63.904 222.43 64.272 222.43 64.688V64.88C222.43 65.304 222.526 65.684 222.718 66.02C222.918 66.348 223.194 66.604 223.546 66.788C223.898 66.972 224.302 67.064 224.758 67.064C225.134 67.064 225.474 67 225.778 66.872C226.09 66.744 226.362 66.552 226.594 66.296L227.23 67.04C226.942 67.376 226.582 67.632 226.15 67.808C225.726 67.984 225.25 68.072 224.722 68.072ZM231.269 68L228.485 61.64H229.685L232.157 67.4H231.581L234.101 61.64H235.229L232.445 68H231.269ZM239.44 68.072C238.76 68.072 238.16 67.932 237.64 67.652C237.128 67.372 236.728 66.988 236.44 66.5C236.16 66.012 236.02 65.452 236.02 64.82C236.02 64.188 236.156 63.628 236.428 63.14C236.708 62.652 237.088 62.272 237.568 62C238.056 61.72 238.604 61.58 239.212 61.58C239.828 61.58 240.372 61.716 240.844 61.988C241.316 62.26 241.684 62.644 241.948 63.14C242.22 63.628 242.356 64.2 242.356 64.856C242.356 64.904 242.352 64.96 242.344 65.024C242.344 65.088 242.34 65.148 242.332 65.204H236.92V64.376H241.732L241.264 64.664C241.272 64.256 241.188 63.892 241.012 63.572C240.836 63.252 240.592 63.004 240.28 62.828C239.976 62.644 239.62 62.552 239.212 62.552C238.812 62.552 238.456 62.644 238.144 62.828C237.832 63.004 237.588 63.256 237.412 63.584C237.236 63.904 237.148 64.272 237.148 64.688V64.88C237.148 65.304 237.244 65.684 237.436 66.02C237.636 66.348 237.912 66.604 238.264 66.788C238.616 66.972 239.02 67.064 239.476 67.064C239.852 67.064 240.192 67 240.496 66.872C240.808 66.744 241.08 66.552 241.312 66.296L241.948 67.04C241.66 67.376 241.3 67.632 240.868 67.808C240.444 67.984 239.968 68.072 239.44 68.072ZM247.832 61.58C248.352 61.58 248.808 61.68 249.2 61.88C249.6 62.08 249.912 62.384 250.136 62.792C250.36 63.2 250.472 63.716 250.472 64.34V68H249.32V64.472C249.32 63.856 249.168 63.392 248.864 63.08C248.568 62.768 248.148 62.612 247.604 62.612C247.196 62.612 246.84 62.692 246.536 62.852C246.232 63.012 245.996 63.248 245.828 63.56C245.668 63.872 245.588 64.26 245.588 64.724V68H244.436V61.64H245.54V63.356L245.36 62.9C245.568 62.484 245.888 62.16 246.32 61.928C246.752 61.696 247.256 61.58 247.832 61.58ZM255.268 68.072C254.628 68.072 254.132 67.9 253.78 67.556C253.428 67.212 253.252 66.72 253.252 66.08V60.248H254.404V66.032C254.404 66.376 254.488 66.64 254.656 66.824C254.832 67.008 255.08 67.1 255.4 67.1C255.76 67.1 256.06 67 256.3 66.8L256.66 67.628C256.484 67.78 256.272 67.892 256.024 67.964C255.784 68.036 255.532 68.072 255.268 68.072ZM252.172 62.588V61.64H256.228V62.588H252.172Z" fill="white"/>
</svg>
