<svg width="517" height="75" viewBox="0 0 517 75" fill="none" xmlns="http://www.w3.org/2000/svg">
<path d="M49.6035 62.1289L49.8477 59.6631V55.0977C45.4694 54.8698 42.1979 54.2757 40.0332 53.3154C37.8685 52.3389 36.2734 51.1182 35.248 49.6533C34.6296 48.7907 34.1494 47.8304 33.8076 46.7725C33.4821 45.6982 32.9368 44.8926 32.1719 44.3555L32.5381 43.8428C33.2705 44.3311 34.0599 44.5752 34.9062 44.5752C35.7689 44.5752 36.8675 44.5426 38.2021 44.4775C39.5368 44.4124 41.0423 44.3392 42.7188 44.2578C44.3952 44.1602 45.5915 44.0951 46.3076 44.0625C47.0238 44.0299 47.5527 43.9323 47.8945 43.7695C48.2363 43.5905 48.4805 43.2731 48.627 42.8174L49.7256 43.1836C49.6768 43.3138 49.6523 43.4847 49.6523 43.6963C49.6523 44.2334 50.0999 44.8438 50.9951 45.5273C51.8903 46.2109 53.5098 46.5527 55.8535 46.5527C57.4323 46.5527 58.5553 46.2842 59.2227 45.7471C59.5156 45.5029 59.6621 45.21 59.6621 44.8682C59.6621 44.0706 59.2227 43.5417 58.3438 43.2812C57.4648 43.0208 56.3988 42.8011 55.1455 42.6221C53.9085 42.4268 52.6634 42.2721 51.4102 42.1582C50.1732 42.0443 48.8304 41.8815 47.3818 41.6699C45.9333 41.4583 44.5661 41.2305 43.2803 40.9863C41.9945 40.7259 40.7412 40.3516 39.5205 39.8633C38.3161 39.375 37.2826 38.8053 36.4199 38.1543C35.5573 37.487 34.8574 36.6406 34.3203 35.6152C33.7995 34.5736 33.5391 33.3936 33.5391 32.0752C33.5391 30.7568 33.7425 29.5524 34.1494 28.4619C34.5726 27.3714 35.1423 26.4355 35.8584 25.6543C36.5745 24.873 37.4372 24.1813 38.4463 23.5791C39.4717 22.9769 40.5378 22.4886 41.6445 22.1143C42.7676 21.7399 43.9883 21.4388 45.3066 21.2109C47.6016 20.7878 49.7663 20.5762 51.8008 20.5762C53.8353 20.5762 55.3815 20.6087 56.4395 20.6738C57.5137 20.7227 58.7669 20.8285 60.1992 20.9912C61.6478 21.1377 62.9499 21.39 64.1055 21.748C65.2773 22.0898 66.4329 22.5293 67.5723 23.0664C69.9486 24.1732 71.6169 25.8903 72.5771 28.2178C72.9678 29.0479 73.5049 29.821 74.1885 30.5371L73.8711 31.0986C73.1875 30.6266 72.3981 30.3906 71.5029 30.3906H71.1855C69.8835 30.4395 68.0199 30.5371 65.5947 30.6836C63.1859 30.8138 61.6315 30.8952 60.9316 30.9277C60.248 30.9603 59.7516 31.0579 59.4424 31.2207C59.1494 31.3835 58.9378 31.6927 58.8076 32.1484L57.7334 31.8555C57.7822 31.709 57.8066 31.5544 57.8066 31.3916C57.8066 30.708 57.2533 30.1221 56.1465 29.6338C55.0397 29.1292 53.7865 28.877 52.3867 28.877C49.6523 28.877 48.2852 29.4141 48.2852 30.4883C48.2852 31.4486 50.3359 32.1484 54.4375 32.5879C55.3978 32.7018 56.4883 32.8158 57.709 32.9297C61.957 33.3691 65.2122 33.9469 67.4746 34.6631C72.2272 36.1605 74.6035 39.0169 74.6035 43.2324C74.6035 44.9577 74.2454 46.512 73.5293 47.8955C72.8132 49.2627 71.8773 50.3776 70.7217 51.2402C69.5824 52.1029 68.2314 52.819 66.6689 53.3887C63.8532 54.4141 60.6387 54.9268 57.0254 54.9268C56.0488 54.9268 55.471 54.9186 55.292 54.9023C54.4131 54.9023 53.9736 55.5778 53.9736 56.9287V57.5146C53.9736 57.9541 54.0794 58.597 54.291 59.4434C54.5189 60.306 54.6328 60.9489 54.6328 61.3721C54.6328 62.2347 54.3317 62.666 53.7295 62.666C53.4202 62.666 53.1761 62.5358 52.9971 62.2754C52.8343 62.015 52.7529 61.6895 52.7529 61.2988C52.7529 60.9082 52.8506 60.2409 53.0459 59.2969C53.2575 58.3691 53.3633 57.6937 53.3633 57.2705C53.3633 56.8473 53.3551 56.5462 53.3389 56.3672C53.3389 56.2044 53.3145 55.9928 53.2656 55.7324C53.2331 55.4883 53.168 55.3092 53.0703 55.1953C52.8424 54.9023 52.4518 54.7559 51.8984 54.7559C50.8893 54.7559 50.3848 55.6348 50.3848 57.3926L50.5312 61.3965C50.5312 62.4707 50.3766 63.0078 50.0674 63.0078C49.7581 63.0078 49.6035 62.7148 49.6035 62.1289ZM84.3398 28.8037L84.4619 25.6787C84.4619 23.8883 84.112 22.6514 83.4121 21.9678L83.9004 21.4795C84.5514 22.1143 85.3571 22.4316 86.3174 22.4316H118.373C119.366 22.4316 120.18 22.1143 120.814 21.4795L121.303 21.9678C120.684 22.5863 120.375 23.4001 120.375 24.4092L120.253 27.5342C120.253 29.292 120.603 30.5208 121.303 31.2207L120.814 31.7334C120.082 30.9847 118.894 30.6104 117.25 30.6104L111.854 30.9521C110.146 30.9521 108.917 30.5778 108.168 29.8291L107.655 30.3174C108.29 30.9359 108.607 31.7497 108.607 32.7588V53.0225C108.607 54.7152 108.754 57.238 109.047 60.5908C109.356 63.9437 109.511 66.1491 109.511 67.207C109.511 69.0625 109.177 69.9902 108.51 69.9902C107.842 69.9902 107.509 69.3311 107.509 68.0127C107.509 66.6943 107.615 64.904 107.826 62.6416C108.054 60.3955 108.168 58.7028 108.168 57.5635C108.168 55.7894 107.818 54.9023 107.118 54.9023C106.776 54.9023 106.508 55.1058 106.312 55.5127C106.117 55.9196 106.02 56.3184 106.02 56.709L106.581 61.8115C106.581 62.9834 106.247 63.5693 105.58 63.5693C105.238 63.5693 104.986 63.3984 104.823 63.0566C104.66 62.7148 104.579 62.3161 104.579 61.8604C104.579 61.4046 104.726 60.6559 105.019 59.6143C105.312 58.5889 105.458 57.7507 105.458 57.0996C105.458 56.4486 105.173 55.9521 104.604 55.6104C104.05 55.2686 103.342 55.0977 102.479 55.0977C101.633 55.0977 100.746 55.2686 99.8184 55.6104C98.9069 55.9521 98.1012 56.4811 97.4014 57.1973C96.7015 57.9297 96.3516 58.6458 96.3516 59.3457C96.3516 60.0618 96.4574 60.9245 96.6689 61.9336C96.8968 62.9427 97.0107 63.7809 97.0107 64.4482C97.0107 65.1318 96.7096 65.4736 96.1074 65.4736C95.4238 65.4736 95.082 65.1074 95.082 64.375C95.082 63.6589 95.2122 62.7474 95.4727 61.6406C95.7331 60.5339 95.8633 59.7038 95.8633 59.1504V52.8027C95.8958 43.8835 95.9121 37.2021 95.9121 32.7588C95.9121 31.7334 96.2214 30.9196 96.8398 30.3174L96.3516 29.8291C95.6354 30.5615 94.4473 30.9277 92.7871 30.9277L87.5381 30.6104C85.8617 30.6104 84.6491 30.9847 83.9004 31.7334L83.4121 31.2207C84.0306 30.6022 84.3398 29.7965 84.3398 28.8037ZM105.385 67.2559C105.775 69.0462 105.971 70.6006 105.971 71.9189C105.971 72.4886 105.767 72.7734 105.36 72.7734C104.953 72.7734 104.75 72.513 104.75 71.9922C104.75 70.5273 104.962 68.9486 105.385 67.2559ZM124.765 56.5625L124.838 60.4443C124.838 61.2256 124.716 61.8115 124.472 62.2021C124.228 62.609 123.935 62.8125 123.593 62.8125C122.909 62.8125 122.567 62.1533 122.567 60.835C122.567 59.5166 122.73 58.0518 123.056 56.4404C123.381 54.8454 123.666 53.7467 123.91 53.1445L135.629 24.3115C135.792 23.8883 135.873 23.4733 135.873 23.0664C135.873 22.6595 135.735 22.2607 135.458 21.8701L136.142 21.4307C136.614 22.1305 137.346 22.4805 138.339 22.4805H149.569C150.546 22.4805 151.27 22.1305 151.742 21.4307L152.45 21.8701C152.174 22.2607 152.035 22.6351 152.035 22.9932C152.035 23.3512 152.133 23.7826 152.328 24.2871L164.389 53.1689C164.763 54.0804 165.341 54.7965 166.122 55.3174L165.829 55.7812C165.032 55.2604 164.145 55 163.168 55H158.383C158.415 55.3581 158.432 55.6104 158.432 55.7568C158.432 56.2939 158.212 56.5625 157.772 56.5625C157.577 56.5625 157.398 56.4811 157.235 56.3184C157.089 56.1719 157.016 55.9521 157.016 55.6592C157.016 55.3825 157.032 55.1628 157.064 55H154.11C153.394 55 152.93 55.3906 152.719 56.1719C152.458 57.1322 152.328 58.2308 152.328 59.4678C152.328 60.721 152.41 61.8604 152.572 62.8857C152.735 63.9111 152.816 64.611 152.816 64.9854C152.816 65.376 152.719 65.6852 152.523 65.9131C152.344 66.1572 152.117 66.2793 151.84 66.2793C151.563 66.2793 151.327 66.1654 151.132 65.9375C150.937 65.7096 150.839 65.3923 150.839 64.9854C150.839 64.5785 150.937 63.7891 151.132 62.6172C151.343 61.4453 151.449 60.5664 151.449 59.9805V53.1201C151.286 52.6807 151.205 52.2738 151.205 51.8994C151.205 51.5251 151.352 51.1263 151.645 50.7031L151.01 50.2393C150.521 50.9391 149.789 51.2891 148.812 51.2891H138.778C137.802 51.2891 137.069 50.9473 136.581 50.2637L135.946 50.7031C136.256 51.1426 136.41 51.5495 136.41 51.9238C136.41 52.2982 136.353 52.6969 136.239 53.1201V53.1445C136.093 53.6979 136.02 54.1211 136.02 54.4141C136.02 54.707 136.182 55.0895 136.508 55.5615L135.873 56.0254C135.385 55.3418 134.652 55 133.676 55H124.838C124.789 55.3092 124.765 55.8301 124.765 56.5625ZM141.293 44.5264H145.956C146.933 44.5264 147.812 44.7868 148.593 45.3076L148.91 44.8438C148.145 44.3229 147.592 43.5986 147.25 42.6709L144.149 34.7363C143.791 33.8086 143.604 32.8646 143.588 31.9043H143.271C143.238 32.9785 143.075 33.9225 142.782 34.7363L139.975 42.6465C139.633 43.5905 139.088 44.3229 138.339 44.8438L138.656 45.332C139.421 44.7949 140.3 44.5264 141.293 44.5264ZM157.138 63.0811C157.138 61.958 157.349 60.5501 157.772 58.8574C158.244 60.8105 158.48 62.0801 158.48 62.666C158.48 63.5286 158.253 63.96 157.797 63.96C157.357 63.96 157.138 63.667 157.138 63.0811ZM188.529 63.6426L188.798 58.8574C188.798 56.123 188.456 54.7559 187.772 54.7559C187.089 54.7559 186.747 55.6185 186.747 57.3438V58.0518C186.747 58.7516 186.902 59.7933 187.211 61.1768C187.536 62.5602 187.699 63.61 187.699 64.3262C187.699 65.4329 187.284 65.9863 186.454 65.9863C185.64 65.9863 185.233 65.4329 185.233 64.3262C185.233 63.5775 185.404 62.487 185.746 61.0547C186.088 59.6224 186.259 58.5319 186.259 57.7832L186.21 47.8223C186.21 47.3177 186.275 46.9271 186.405 46.6504C186.552 46.3737 186.845 46.1702 187.284 46.04L187.04 45.1123C186.812 45.1774 186.609 45.21 186.43 45.21C186.267 45.21 186.096 45.153 185.917 45.0391C185.705 44.8926 185.461 44.5996 185.185 44.1602L172.807 23.9941C172.318 23.1966 171.651 22.5456 170.805 22.041L171.024 21.626C171.838 22.0817 172.758 22.3096 173.783 22.3096L183.622 22.2607C184.599 22.2607 185.29 21.9108 185.697 21.2109L186.454 21.626C186.243 22.0166 186.137 22.4479 186.137 22.9199C186.137 23.3757 186.462 24.165 187.113 25.2881C187.781 26.4111 188.505 27.5016 189.286 28.5596C190.084 29.6175 190.808 30.7894 191.459 32.0752C192.126 33.361 192.46 34.4759 192.46 35.4199H192.973V35.2246C192.973 33.6947 194.031 31.4648 196.146 28.5352C198.262 25.6055 199.32 23.6442 199.32 22.6514C199.32 22.391 199.206 22.0492 198.979 21.626L199.735 21.2109C200.142 21.9108 200.842 22.2607 201.835 22.2607L211.088 22.3096C212.097 22.3096 213.008 22.0817 213.822 21.626L214.042 22.041C213.163 22.5618 212.488 23.2129 212.016 23.9941L199.516 44.1602C199.092 44.86 198.661 45.21 198.222 45.21C198.043 45.21 197.855 45.1774 197.66 45.1123L197.367 46.0156C198.148 46.2598 198.539 47.0736 198.539 48.457L198.393 51.8506C198.393 53.4131 198.734 54.5361 199.418 55.2197L198.905 55.708C198.271 55.0732 197.465 54.7559 196.488 54.7559H190.775C189.734 54.7559 189.213 56.2288 189.213 59.1748L189.579 63.7158C189.579 64.2855 189.4 64.5703 189.042 64.5703C188.7 64.5703 188.529 64.2611 188.529 63.6426ZM239.105 28.8037L239.228 25.6787C239.228 23.8883 238.878 22.6514 238.178 21.9678L238.666 21.4795C239.317 22.1143 240.123 22.4316 241.083 22.4316H273.139C274.132 22.4316 274.945 22.1143 275.58 21.4795L276.068 21.9678C275.45 22.5863 275.141 23.4001 275.141 24.4092L275.019 27.5342C275.019 29.292 275.368 30.5208 276.068 31.2207L275.58 31.7334C274.848 30.9847 273.66 30.6104 272.016 30.6104L266.62 30.9521C264.911 30.9521 263.682 30.5778 262.934 29.8291L262.421 30.3174C263.056 30.9359 263.373 31.7497 263.373 32.7588V53.0225C263.373 54.7152 263.52 57.238 263.812 60.5908C264.122 63.9437 264.276 66.1491 264.276 67.207C264.276 69.0625 263.943 69.9902 263.275 69.9902C262.608 69.9902 262.274 69.3311 262.274 68.0127C262.274 66.6943 262.38 64.904 262.592 62.6416C262.82 60.3955 262.934 58.7028 262.934 57.5635C262.934 55.7894 262.584 54.9023 261.884 54.9023C261.542 54.9023 261.273 55.1058 261.078 55.5127C260.883 55.9196 260.785 56.3184 260.785 56.709L261.347 61.8115C261.347 62.9834 261.013 63.5693 260.346 63.5693C260.004 63.5693 259.752 63.3984 259.589 63.0566C259.426 62.7148 259.345 62.3161 259.345 61.8604C259.345 61.4046 259.491 60.6559 259.784 59.6143C260.077 58.5889 260.224 57.7507 260.224 57.0996C260.224 56.4486 259.939 55.9521 259.369 55.6104C258.816 55.2686 258.108 55.0977 257.245 55.0977C256.399 55.0977 255.512 55.2686 254.584 55.6104C253.673 55.9521 252.867 56.4811 252.167 57.1973C251.467 57.9297 251.117 58.6458 251.117 59.3457C251.117 60.0618 251.223 60.9245 251.435 61.9336C251.662 62.9427 251.776 63.7809 251.776 64.4482C251.776 65.1318 251.475 65.4736 250.873 65.4736C250.189 65.4736 249.848 65.1074 249.848 64.375C249.848 63.6589 249.978 62.7474 250.238 61.6406C250.499 60.5339 250.629 59.7038 250.629 59.1504V52.8027C250.661 43.8835 250.678 37.2021 250.678 32.7588C250.678 31.7334 250.987 30.9196 251.605 30.3174L251.117 29.8291C250.401 30.5615 249.213 30.9277 247.553 30.9277L242.304 30.6104C240.627 30.6104 239.415 30.9847 238.666 31.7334L238.178 31.2207C238.796 30.6022 239.105 29.7965 239.105 28.8037ZM260.15 67.2559C260.541 69.0462 260.736 70.6006 260.736 71.9189C260.736 72.4886 260.533 72.7734 260.126 72.7734C259.719 72.7734 259.516 72.513 259.516 71.9922C259.516 70.5273 259.727 68.9486 260.15 67.2559ZM324.867 27.4121L325.087 39.8877C325.087 44.2334 324.55 47.4154 323.476 49.4336C322.466 51.3542 321.026 52.7946 319.154 53.7549C317.022 54.8617 314.19 55.5778 310.658 55.9033V60.4688L310.902 62.9834C310.902 63.5368 310.748 63.8135 310.438 63.8135C310.129 63.8135 309.975 63.2764 309.975 62.2021L310.121 58.2227C310.121 56.4648 309.576 55.5859 308.485 55.5859C307.639 55.5859 307.216 56.2777 307.216 57.6611C307.216 57.6611 307.257 58.3691 307.338 59.7852C307.338 60.2734 307.436 60.9814 307.631 61.9092C307.842 62.8532 307.948 63.5205 307.948 63.9111C307.948 64.3018 307.867 64.6273 307.704 64.8877C307.541 65.1481 307.305 65.2783 306.996 65.2783C306.687 65.2783 306.451 65.14 306.288 64.8633C306.142 64.6029 306.068 64.2855 306.068 63.9111C306.068 63.5368 306.174 62.9183 306.386 62.0557C306.614 61.2093 306.728 60.6641 306.728 60.4199C306.728 60.1758 306.728 59.9235 306.728 59.6631C306.728 59.4189 306.719 59.1667 306.703 58.9062C306.687 58.6458 306.646 58.3203 306.581 57.9297C306.451 57.1159 306.06 56.709 305.409 56.709C304.205 56.709 303.603 57.8971 303.603 60.2734V61.3965C303.603 61.9987 303.749 62.8776 304.042 64.0332C304.335 65.1888 304.481 66.0189 304.481 66.5234C304.481 67.7767 304.075 68.4033 303.261 68.4033C302.854 68.4033 302.528 68.2324 302.284 67.8906C302.056 67.5488 301.942 67.1094 301.942 66.5723C301.942 66.0352 302.073 65.1237 302.333 63.8379C302.61 62.5521 302.748 61.5755 302.748 60.9082V56.0498C298.126 55.8382 294.659 55.1628 292.348 54.0234C288.311 52.0703 286.236 48.3594 286.122 42.8906C286.09 41.377 286.073 39.1227 286.073 36.1279L286.122 24.8486C286.122 23.8883 285.805 23.0827 285.17 22.4316L285.683 21.9434C286.285 22.5618 287.09 22.8711 288.1 22.8711H296.742C297.735 22.8711 298.541 22.5618 299.159 21.9434L299.672 22.4316C299.053 23.0664 298.744 23.8721 298.744 24.8486L298.793 37.3975C298.793 39.8226 298.858 41.3607 298.988 42.0117C299.118 42.6628 299.257 43.265 299.403 43.8184C299.566 44.3555 299.753 44.7868 299.965 45.1123C300.193 45.4378 300.478 45.7878 300.819 46.1621C301.161 46.5202 301.552 46.7969 301.991 46.9922C303.017 47.4479 304.018 47.6758 304.994 47.6758C305.987 47.6758 306.752 47.6351 307.289 47.5537C307.842 47.4561 308.323 47.3096 308.729 47.1143C309.153 46.9027 309.527 46.6829 309.853 46.4551C310.194 46.2109 310.479 45.9098 310.707 45.5518C310.951 45.1774 311.163 44.8275 311.342 44.502C311.521 44.1602 311.659 43.737 311.757 43.2324C311.871 42.7279 311.96 42.2884 312.025 41.9141C312.09 41.5234 312.139 41.0352 312.172 40.4492C312.221 39.554 312.245 38.5368 312.245 37.3975L312.294 24.8486C312.294 23.8558 311.993 23.0501 311.391 22.4316L311.854 21.9434C312.473 22.5618 313.287 22.8711 314.296 22.8711H322.938C323.964 22.8711 324.778 22.5618 325.38 21.9434L325.868 22.4316C325.201 23.1152 324.867 24.7754 324.867 27.4121ZM311.244 68.5498C311.244 69.3148 310.976 69.6973 310.438 69.6973C309.901 69.6973 309.633 69.2985 309.633 68.501C309.633 67.7197 309.747 67.0524 309.975 66.499C310.219 65.9619 310.365 65.6934 310.414 65.6934C310.463 65.6934 310.552 65.8398 310.683 66.1328C311.057 66.9792 311.244 67.7848 311.244 68.5498ZM346.786 62.5684L347.372 55.9521C347.372 55.4313 347.079 55 346.493 54.6582C345.533 54.1211 344.361 53.8525 342.978 53.8525C341.122 53.8525 339.844 54.2188 339.145 54.9512C338.835 55.2767 338.681 55.7487 338.681 56.3672C338.681 57.002 338.868 58.1006 339.242 59.6631C339.617 61.2256 339.804 62.3242 339.804 62.959C339.804 63.61 339.682 64.1227 339.438 64.4971C339.21 64.8877 338.868 65.083 338.412 65.083C337.956 65.083 337.606 64.8877 337.362 64.4971C337.118 64.1227 336.996 63.61 336.996 62.959C336.996 62.3079 337.191 61.1849 337.582 59.5898C337.989 57.9948 338.192 56.7904 338.192 55.9766L338.168 26.0449C338.168 24.1243 337.582 22.5212 336.41 21.2354L336.923 20.7227C338.241 21.8945 339.844 22.4805 341.732 22.4805H349.032C350.074 22.4805 350.953 22.3584 351.669 22.1143C352.401 21.8538 352.987 21.3493 353.427 20.6006L354.232 20.9912C353.809 22.0003 353.598 22.9525 353.598 23.8477C353.598 24.5801 354.883 26.4193 357.455 29.3652C360.808 33.2064 362.965 35.7861 363.925 37.1045C364.885 38.4229 365.512 39.4889 365.805 40.3027H367.27C366.472 39.1309 366.073 37.4788 366.073 35.3467C366.073 34.3538 366.195 32.8727 366.439 30.9033C366.684 28.9176 366.806 27.4284 366.806 26.4355C366.806 23.7663 365.959 22.0329 364.267 21.2354L364.779 20.7227C366.098 21.8945 367.701 22.4805 369.589 22.4805H374.594C376.482 22.4805 378.085 21.8945 379.403 20.7227L379.892 21.2354C378.736 22.5374 378.158 24.1406 378.158 26.0449L378.109 55.8545C378.109 56.5544 378.272 57.596 378.598 58.9795C378.923 60.3792 379.086 61.429 379.086 62.1289C379.086 63.1706 378.687 63.6914 377.89 63.6914C377.092 63.6914 376.693 63.1706 376.693 62.1289C376.693 61.4453 376.848 60.4362 377.157 59.1016C377.466 57.7832 377.621 56.8717 377.621 56.3672C377.621 55.8789 377.458 55.529 377.133 55.3174C376.807 55.1058 376.49 55 376.181 55H366.537C365.17 55 364.486 56.2451 364.486 58.7354C364.486 59.7607 364.674 61.2419 365.048 63.1787C365.438 65.1318 365.634 66.6048 365.634 67.5977C365.634 69.0137 365.105 69.7217 364.047 69.7217C362.989 69.7217 362.46 69.0055 362.46 67.5732C362.46 66.6618 362.663 65.3353 363.07 63.5938C363.493 61.8522 363.713 60.542 363.729 59.6631L363.778 56.416C363.827 54.9023 363.673 53.9176 363.314 53.4619L351.62 38.6426C351.311 38.2357 350.969 37.3893 350.595 36.1035L349.105 36.1523C349.952 37.0312 350.375 38.0078 350.375 39.082V53.0225L350.839 65.376C350.839 65.6364 350.757 65.8561 350.595 66.0352C350.448 66.2305 350.237 66.3281 349.96 66.3281C349.7 66.3281 349.48 66.2142 349.301 65.9863C349.122 65.7747 349.032 65.5306 349.032 65.2539L349.325 55.8789C349.325 55.6836 349.252 55.5046 349.105 55.3418C348.959 55.179 348.788 55.0977 348.593 55.0977C348.17 55.0977 347.958 55.4232 347.958 56.0742C347.958 56.7253 348.064 57.7913 348.275 59.2725C348.503 60.7536 348.617 61.7708 348.617 62.3242C348.617 63.5612 348.308 64.1797 347.689 64.1797C347.087 64.1797 346.786 63.6426 346.786 62.5684ZM405.351 50.9473L404.96 47.9199V47.6514C405.302 47.0492 405.766 46.748 406.352 46.748L426.273 46.7725C427.266 46.7725 428.072 46.4551 428.69 45.8203L429.179 46.3086C428.267 47.985 427.812 51.0205 427.812 55.415C427.812 56.0986 427.958 57.417 428.251 59.3701C428.56 61.3395 428.715 62.6416 428.715 63.2764C428.715 63.9274 428.609 64.4076 428.397 64.7168C428.186 65.026 427.934 65.1807 427.641 65.1807C427.348 65.1807 427.087 65.0098 426.859 64.668C426.648 64.3262 426.542 63.8542 426.542 63.252L426.933 57.8564C426.933 56.4242 426.68 55.3499 426.176 54.6338C425.671 53.9014 424.988 53.5352 424.125 53.5352C422.188 53.5352 421.22 54.9919 421.22 57.9053C421.22 59.0283 421.382 60.6559 421.708 62.7881C422.05 64.9202 422.221 66.2549 422.221 66.792C422.221 67.3291 422.099 67.736 421.854 68.0127C421.61 68.3057 421.326 68.4521 421 68.4521C420.691 68.4521 420.414 68.3138 420.17 68.0371C419.942 67.7767 419.828 67.4186 419.828 66.9629L420.268 59.1748C420.268 56.3265 419.657 54.9023 418.437 54.9023L416.581 54.9512H397.392C395.943 54.9512 394.877 55.2279 394.193 55.7812C393.412 56.4323 393.021 58.2715 393.021 61.2988C393.021 62.5195 393.209 64.318 393.583 66.6943C393.957 69.0869 394.145 70.8854 394.145 72.0898C394.145 73.8314 393.526 74.7021 392.289 74.7021C390.954 74.7021 390.287 73.807 390.287 72.0166C390.287 70.7959 390.556 68.9893 391.093 66.5967C391.63 64.2041 391.898 62.3893 391.898 61.1523L391.776 52.9736V24.5068C391.776 23.4977 391.467 22.6921 390.849 22.0898L391.337 21.5771C392.004 22.2119 392.818 22.5293 393.778 22.5293H425.126C426.119 22.5293 426.933 22.2119 427.567 21.5771L428.056 22.0898C427.34 22.806 426.981 24.2057 426.981 26.2891V27.3877C426.981 29.2269 427.34 30.4883 428.056 31.1719L427.567 31.6357C426.754 30.8057 424.841 30.3906 421.83 30.3906L409.696 30.9521C406.701 30.9521 404.797 30.5371 403.983 29.707L403.471 30.1953C404.105 30.8138 404.423 31.6357 404.423 32.6611C404.423 33.6702 404.105 34.484 403.471 35.1025L403.983 35.5664C404.765 34.7526 406.409 34.3457 408.915 34.3457L419.145 34.9072C421.667 34.9072 423.336 34.5003 424.149 33.6865L424.662 34.1748C423.946 34.891 423.588 36.3883 423.588 38.667V39.6191C423.588 41.3607 423.946 42.5895 424.662 43.3057L424.149 43.8184C423.368 43.0046 421.716 42.5977 419.193 42.5977L408.964 43.1348C406.457 43.1348 404.797 42.7279 403.983 41.9141L403.495 42.4023C404.179 43.1022 404.521 44.3229 404.521 46.0645L404.472 47.9688L404.057 50.8984C404.057 51.4844 404.268 51.7773 404.691 51.7773C405.131 51.7773 405.351 51.5007 405.351 50.9473ZM453.295 61.0303L453.808 57.5635C453.808 55.1709 451.252 53.9746 446.142 53.9746C445.263 53.9746 444.652 54.1781 444.311 54.585C443.969 54.9919 443.798 55.6836 443.798 56.6602C443.798 57.6367 443.944 58.9876 444.237 60.7129C444.53 62.4544 444.677 63.7809 444.677 64.6924C444.677 65.6201 444.311 66.084 443.578 66.084C442.846 66.084 442.479 65.5957 442.479 64.6191C442.479 63.6589 442.593 62.2021 442.821 60.249C443.049 58.2959 443.163 56.9694 443.163 56.2695C443.163 54.6094 442.862 53.7793 442.26 53.7793C441.869 53.7793 441.674 54.2432 441.674 55.1709L442.26 59.2236C442.26 60.1839 441.91 60.6641 441.21 60.6641C440.526 60.6641 440.185 60.1758 440.185 59.1992L440.746 54.707L440.722 50.6543V24.458C440.722 23.4489 440.404 22.6351 439.77 22.0166L440.258 21.5039C440.925 22.1549 441.739 22.4805 442.699 22.4805H462.865C472.598 22.4805 478.637 25.6462 480.98 31.9775C481.632 33.7679 481.957 35.6803 481.957 37.7148C481.957 39.7331 481.827 41.4746 481.566 42.9395C481.322 44.388 481.005 45.6657 480.614 46.7725C480.224 47.863 479.67 48.8314 478.954 49.6777C478.254 50.5241 477.546 51.2402 476.83 51.8262C476.13 52.3958 475.235 52.8841 474.145 53.291C473.054 53.6979 472.045 54.0153 471.117 54.2432C470.189 54.4548 469.026 54.6175 467.626 54.7314C465.429 54.9105 462.849 55 459.887 55H456.347C454.979 55 454.296 55.9766 454.296 57.9297L454.687 61.0547C454.687 61.6732 454.475 61.9824 454.052 61.9824C453.547 61.9824 453.295 61.665 453.295 61.0303ZM467.284 44.2334C467.789 43.5824 468.179 42.7441 468.456 41.7188C468.733 40.6771 468.871 39.432 468.871 37.9834C468.871 36.5186 468.627 35.2979 468.139 34.3213C467.65 33.3447 466.999 32.6286 466.186 32.1729C465.372 31.7171 464.468 31.3835 463.476 31.1719C462.483 30.944 461.441 30.8219 460.351 30.8057C459.26 30.7731 458.243 30.7487 457.299 30.7324C454.988 30.6999 453.507 30.3581 452.855 29.707L452.367 30.1953C452.986 30.7975 453.295 31.6113 453.295 32.6367V38.252C453.295 41.9954 453.311 44.7949 453.344 46.6504H458.886C461.669 46.6504 463.638 46.4062 464.794 45.918C465.966 45.4297 466.796 44.8682 467.284 44.2334ZM454.857 69.6729C454.857 70.4215 454.581 70.7959 454.027 70.7959C453.49 70.7959 453.222 70.4867 453.222 69.8682C453.222 69.266 453.254 68.737 453.319 68.2812C453.401 67.8255 453.531 67.2396 453.71 66.5234C453.889 65.8236 453.995 65.3841 454.027 65.2051C454.076 65.4167 454.166 65.7666 454.296 66.2549C454.426 66.7594 454.524 67.1501 454.589 67.4268C454.768 68.1917 454.857 68.9404 454.857 69.6729ZM498.847 42.793H497.87C496.894 42.793 496.088 43.1104 495.453 43.7451L494.94 43.2324C495.738 42.4349 496.055 41.6374 495.893 40.8398L492.743 24.4336C492.743 24.3848 492.719 24.2627 492.67 24.0674C492.637 23.8558 492.605 23.6768 492.572 23.5303C492.556 23.3838 492.532 23.2861 492.499 23.2373C492.483 23.1885 492.458 23.1071 492.426 22.9932C492.393 22.8792 492.353 22.7897 492.304 22.7246C492.271 22.6595 492.23 22.5781 492.182 22.4805C492.117 22.3503 491.986 22.1875 491.791 21.9922L492.304 21.5039C492.938 22.1387 493.744 22.4561 494.721 22.4561H501.825C502.802 22.4561 503.607 22.1387 504.242 21.5039L504.755 21.9922C504.56 22.1875 504.429 22.3421 504.364 22.4561C504.315 22.57 504.267 22.6595 504.218 22.7246C504.185 22.7897 504.153 22.8792 504.12 22.9932C504.088 23.1071 504.055 23.1885 504.022 23.2373C504.006 23.2861 503.982 23.3838 503.949 23.5303C503.933 23.6768 503.917 23.7663 503.9 23.7988C503.835 24.1732 503.803 24.3848 503.803 24.4336L500.824 40.8398C500.678 41.6536 500.995 42.4512 501.776 43.2324L501.288 43.7451C500.653 43.1104 499.84 42.793 498.847 42.793ZM500.019 55H496.527C495.095 55 494.241 54.943 493.964 54.8291C493.687 54.7152 493.549 54.3001 493.549 53.584V47.8711C493.549 47.1549 493.679 46.748 493.939 46.6504C494.216 46.5365 495.079 46.4795 496.527 46.4795H500.019C501.467 46.4795 502.33 46.5365 502.606 46.6504C502.883 46.748 503.021 47.1549 503.021 47.8711V53.584C503.021 54.2839 502.875 54.6989 502.582 54.8291C502.289 54.943 501.435 55 500.019 55Z" fill="white"/>
<line x1="0.829612" y1="50.0036" x2="516.83" y2="28.0036" stroke="#030000" stroke-width="8"/>
</svg>
