<svg width="473" height="55" viewBox="0 0 473 55" fill="none" xmlns="http://www.w3.org/2000/svg">
<path fill-rule="evenodd" clip-rule="evenodd" d="M17.6758 39.0869L17.4316 41.5527C17.4316 42.1387 17.5863 42.4316 17.8955 42.4316C18.2048 42.4316 18.3594 41.8945 18.3594 40.8203L18.2129 36.8164C18.2129 35.0586 18.7174 34.1797 19.7266 34.1797C20.2799 34.1797 20.6706 34.3262 20.8984 34.6191C20.9961 34.7331 21.0612 34.9121 21.0938 35.1562C21.1426 35.4167 21.167 35.6283 21.167 35.791C21.1833 35.9701 21.1914 36.2712 21.1914 36.6943C21.1914 37.1175 21.0856 37.793 20.874 38.7207C20.6787 39.6647 20.5811 40.332 20.5811 40.7227C20.5811 41.1133 20.6624 41.4388 20.8252 41.6992C21.0042 41.9596 21.2484 42.0898 21.5576 42.0898C22.1598 42.0898 22.4609 41.6585 22.4609 40.7959C22.4609 40.3727 22.347 39.7298 22.1191 38.8672C21.9076 38.0208 21.8018 37.3779 21.8018 36.9385V36.3525C21.8018 35.0016 22.2412 34.3262 23.1201 34.3262C23.2992 34.3424 23.877 34.3506 24.8535 34.3506C28.4668 34.3506 31.6813 33.8379 34.4971 32.8125C36.0596 32.2428 37.4105 31.5267 38.5498 30.6641C38.6479 30.5908 38.7445 30.5157 38.8394 30.4388L6.13056 31.8334C6.6601 32.1557 7.23702 32.4576 7.86133 32.7393C10.026 33.6995 13.2975 34.2936 17.6758 34.5215V39.0869ZM0.36604 24.0719L2.39268 23.9855C1.67465 23.9282 0.999158 23.6886 0.366211 23.2666L0 23.7793C0.128183 23.8693 0.250196 23.9668 0.36604 24.0719ZM14.2828 23.4786L17.5048 23.3412C17.4886 23.2662 17.4805 23.1925 17.4805 23.1201C17.4805 22.9085 17.5049 22.7376 17.5537 22.6074L16.4551 22.2412C16.3086 22.6969 16.0645 23.0143 15.7227 23.1934C15.4047 23.3448 14.9247 23.4398 14.2828 23.4786ZM26.7429 22.9473L42.4252 22.2787C42.2862 18.2698 39.9121 15.5392 35.3027 14.0869C33.0404 13.3708 29.7852 12.793 25.5371 12.3535C24.3164 12.2396 23.2259 12.1257 22.2656 12.0117C18.1641 11.5723 16.1133 10.8724 16.1133 9.91211C16.1133 8.83789 17.4805 8.30078 20.2148 8.30078C21.6146 8.30078 22.8678 8.55306 23.9746 9.05762C25.0814 9.5459 25.6348 10.1318 25.6348 10.8154C25.6348 10.9782 25.6104 11.1328 25.5615 11.2793L26.6357 11.5723C26.766 11.1165 26.9775 10.8073 27.2705 10.6445C27.5798 10.4818 28.0762 10.3841 28.7598 10.3516C29.4596 10.319 31.014 10.2376 33.4229 10.1074C35.848 9.96094 37.7116 9.86328 39.0137 9.81445H39.3311C40.2262 9.81445 41.0156 10.0505 41.6992 10.5225L42.0166 9.96094C41.333 9.24479 40.7959 8.47168 40.4053 7.6416C39.445 5.31413 37.7767 3.59701 35.4004 2.49023C34.2611 1.95312 33.1055 1.51367 31.9336 1.17188C30.778 0.813802 29.4759 0.561523 28.0273 0.415039C26.5951 0.252279 25.3418 0.146484 24.2676 0.0976562C23.2096 0.0325521 21.6634 0 19.6289 0C17.5944 0 15.4297 0.211589 13.1348 0.634766C11.8164 0.86263 10.5957 1.16374 9.47266 1.53809C8.36589 1.91243 7.2998 2.40072 6.27441 3.00293C5.2653 3.60514 4.40267 4.29688 3.68652 5.07812C2.97038 5.85938 2.40072 6.79525 1.97754 7.88574C1.57064 8.97624 1.36719 10.1807 1.36719 11.499C1.36719 12.8174 1.6276 13.9974 2.14844 15.0391C2.68555 16.0645 3.38542 16.9108 4.24805 17.5781C5.11068 18.2292 6.14421 18.7988 7.34863 19.2871C8.56934 19.7754 9.82259 20.1497 11.1084 20.4102C12.3942 20.6543 13.7614 20.8822 15.21 21.0938C16.6585 21.3053 18.0013 21.4681 19.2383 21.582C20.4915 21.696 21.7367 21.8506 22.9736 22.0459C24.2269 22.2249 25.293 22.4447 26.1719 22.7051C26.3891 22.7694 26.5794 22.8502 26.7429 22.9473ZM63.7015 29.3788C63.6983 30.3013 63.695 31.2505 63.6914 32.2266V38.5742C63.6914 39.1276 63.5612 39.9577 63.3008 41.0645C63.0404 42.1712 62.9102 43.0827 62.9102 43.7988C62.9102 44.5312 63.252 44.8975 63.9355 44.8975C64.5378 44.8975 64.8389 44.5557 64.8389 43.8721C64.8389 43.2048 64.7249 42.3665 64.4971 41.3574C64.2855 40.3483 64.1797 39.4857 64.1797 38.7695C64.1797 38.0697 64.5296 37.3535 65.2295 36.6211C65.9294 35.9049 66.735 35.376 67.6465 35.0342C68.5742 34.6924 69.4613 34.5215 70.3076 34.5215C71.1702 34.5215 71.8783 34.6924 72.4316 35.0342C73.0013 35.376 73.2861 35.8724 73.2861 36.5234C73.2861 37.1745 73.1396 38.0127 72.8467 39.0381C72.5537 40.0798 72.4072 40.8284 72.4072 41.2842C72.4072 41.7399 72.4886 42.1387 72.6514 42.4805C72.8141 42.8223 73.0664 42.9932 73.4082 42.9932C74.0755 42.9932 74.4092 42.4072 74.4092 41.2354L73.8477 36.1328C73.8477 35.7422 73.9453 35.3434 74.1406 34.9365C74.3359 34.5296 74.6045 34.3262 74.9463 34.3262C75.6462 34.3262 75.9961 35.2132 75.9961 36.9873C75.9961 38.1266 75.8822 39.8193 75.6543 42.0654C75.4427 44.3278 75.3369 46.1182 75.3369 47.4365C75.3369 48.7549 75.6706 49.4141 76.3379 49.4141C77.0052 49.4141 77.3389 48.4863 77.3389 46.6309C77.3389 45.5729 77.1842 43.3675 76.875 40.0146C76.582 36.6618 76.4355 34.139 76.4355 32.4463V28.8359L63.7015 29.3788ZM76.4355 20.8286L63.7259 21.3705C63.7355 17.6516 63.7402 14.5889 63.7402 12.1826C63.7402 11.1572 64.0495 10.3434 64.668 9.74121L64.1797 9.25293C63.4635 9.98535 62.2754 10.3516 60.6152 10.3516L55.3662 10.0342C53.6898 10.0342 52.4772 10.4085 51.7285 11.1572L51.2402 10.6445C51.8587 10.026 52.168 9.22038 52.168 8.22754L52.29 5.10254C52.29 3.31217 51.9401 2.0752 51.2402 1.3916L51.7285 0.90332C52.3796 1.53809 53.1852 1.85547 54.1455 1.85547H86.2012C87.194 1.85547 88.0078 1.53809 88.6426 0.90332L89.1309 1.3916C88.5124 2.01009 88.2031 2.82389 88.2031 3.83301L88.0811 6.95801C88.0811 8.71582 88.431 9.94466 89.1309 10.6445L88.6426 11.1572C87.9102 10.4085 86.722 10.0342 85.0781 10.0342L79.6826 10.376C77.9736 10.376 76.7448 10.0016 75.9961 9.25293L75.4834 9.74121C76.1182 10.3597 76.4355 11.1735 76.4355 12.1826V20.8286ZM93.5519 28.1061L91.7383 32.5684C91.4941 33.1706 91.2093 34.2692 90.8838 35.8643C90.5583 37.4756 90.3955 38.9404 90.3955 40.2588C90.3955 41.5771 90.7373 42.2363 91.4209 42.2363C91.7627 42.2363 92.0557 42.0329 92.2998 41.626C92.5439 41.2354 92.666 40.6494 92.666 39.8682L92.5928 35.9863C92.5928 35.2539 92.6172 34.7331 92.666 34.4238H101.504C102.48 34.4238 103.213 34.7656 103.701 35.4492L104.336 34.9854C104.01 34.5133 103.848 34.1309 103.848 33.8379C103.848 33.5449 103.921 33.1217 104.067 32.5684V32.5439C104.181 32.1208 104.238 31.722 104.238 31.3477C104.238 30.9733 104.084 30.5664 103.774 30.127L104.409 29.6875C104.897 30.3711 105.63 30.7129 106.606 30.7129H116.641C117.617 30.7129 118.35 30.363 118.838 29.6631L119.473 30.127C119.18 30.5501 119.033 30.9489 119.033 31.3232C119.033 31.6976 119.115 32.1045 119.277 32.5439V39.4043C119.277 39.9902 119.172 40.8691 118.96 42.041C118.765 43.2129 118.667 44.0023 118.667 44.4092C118.667 44.8161 118.765 45.1335 118.96 45.3613C119.155 45.5892 119.391 45.7031 119.668 45.7031C119.945 45.7031 120.173 45.5811 120.352 45.3369C120.547 45.1091 120.645 44.7998 120.645 44.4092C120.645 44.0348 120.563 43.335 120.4 42.3096C120.238 41.2842 120.156 40.1449 120.156 38.8916C120.156 37.6546 120.286 36.556 120.547 35.5957C120.758 34.8145 121.222 34.4238 121.938 34.4238H124.893C124.86 34.5866 124.844 34.8063 124.844 35.083C124.844 35.376 124.917 35.5957 125.063 35.7422C125.226 35.9049 125.405 35.9863 125.601 35.9863C126.04 35.9863 126.26 35.7178 126.26 35.1807C126.26 35.0342 126.243 34.7819 126.211 34.4238H130.996C131.973 34.4238 132.86 34.6842 133.657 35.2051L133.95 34.7412C133.169 34.2204 132.591 33.5042 132.217 32.5928L129.7 26.565L93.5519 28.1061ZM126.414 18.6978L120.156 3.71094C119.961 3.20638 119.863 2.77507 119.863 2.41699C119.863 2.05892 120.002 1.68457 120.278 1.29395L119.57 0.854492C119.098 1.55436 118.374 1.9043 117.397 1.9043H106.167C105.174 1.9043 104.442 1.55436 103.97 0.854492L103.286 1.29395C103.563 1.68457 103.701 2.08333 103.701 2.49023C103.701 2.89714 103.62 3.31217 103.457 3.73535L96.8637 19.9577L108.732 19.4517L110.61 14.1602C110.903 13.3464 111.066 12.4023 111.099 11.3281H111.416C111.432 12.2884 111.619 13.2324 111.978 14.1602L113.958 19.2288L126.414 18.6978ZM155.046 25.4843C154.643 25.6149 154.372 25.8116 154.233 26.0742C154.103 26.3509 154.038 26.7415 154.038 27.2461L154.087 37.207C154.087 37.9557 153.916 39.0462 153.574 40.4785C153.232 41.9108 153.062 43.0013 153.062 43.75C153.062 44.8568 153.468 45.4102 154.282 45.4102C155.112 45.4102 155.527 44.8568 155.527 43.75C155.527 43.0339 155.365 41.9841 155.039 40.6006C154.73 39.2171 154.575 38.1755 154.575 37.4756V36.7676C154.575 35.0423 154.917 34.1797 155.601 34.1797C156.284 34.1797 156.626 35.5469 156.626 38.2812L156.357 43.0664C156.357 43.6849 156.528 43.9941 156.87 43.9941C157.228 43.9941 157.407 43.7093 157.407 43.1396L157.041 38.5986C157.041 35.6527 157.562 34.1797 158.604 34.1797H164.316C165.293 34.1797 166.099 34.4971 166.733 35.1318L167.246 34.6436C166.562 33.96 166.221 32.8369 166.221 31.2744L166.367 27.8809C166.367 26.4974 165.977 25.6836 165.195 25.4395L165.323 25.0461L155.046 25.4843ZM171.566 16.7727L149.412 17.7173L140.635 3.41797C140.146 2.62044 139.479 1.9694 138.633 1.46484L138.853 1.0498C139.666 1.50553 140.586 1.7334 141.611 1.7334L151.45 1.68457C152.427 1.68457 153.118 1.33464 153.525 0.634766L154.282 1.0498C154.071 1.44043 153.965 1.87174 153.965 2.34375C153.965 2.79948 154.29 3.58887 154.941 4.71191C155.609 5.83496 156.333 6.92546 157.114 7.9834C157.912 9.04134 158.636 10.2132 159.287 11.499C159.954 12.7848 160.288 13.8997 160.288 14.8438H160.801V14.6484C160.801 13.1185 161.859 10.8887 163.975 7.95898C166.09 5.0293 167.148 3.06803 167.148 2.0752C167.148 1.81478 167.035 1.47298 166.807 1.0498L167.563 0.634766C167.97 1.33464 168.67 1.68457 169.663 1.68457L178.916 1.7334C179.925 1.7334 180.837 1.50553 181.65 1.0498L181.87 1.46484C180.991 1.98568 180.316 2.63672 179.844 3.41797L171.566 16.7727ZM218.488 22.7794C218.48 25.5854 218.47 28.7345 218.457 32.2266V38.5742C218.457 39.1276 218.327 39.9577 218.066 41.0645C217.806 42.1712 217.676 43.0827 217.676 43.7988C217.676 44.5312 218.018 44.8975 218.701 44.8975C219.303 44.8975 219.604 44.5557 219.604 43.8721C219.604 43.2048 219.491 42.3665 219.263 41.3574C219.051 40.3483 218.945 39.4857 218.945 38.7695C218.945 38.0697 219.295 37.3535 219.995 36.6211C220.695 35.9049 221.501 35.376 222.412 35.0342C223.34 34.6924 224.227 34.5215 225.073 34.5215C225.936 34.5215 226.644 34.6924 227.197 35.0342C227.767 35.376 228.052 35.8724 228.052 36.5234C228.052 37.1745 227.905 38.0127 227.612 39.0381C227.319 40.0798 227.173 40.8284 227.173 41.2842C227.173 41.7399 227.254 42.1387 227.417 42.4805C227.58 42.8223 227.832 42.9932 228.174 42.9932C228.841 42.9932 229.175 42.4072 229.175 41.2354L228.613 36.1328C228.613 35.7422 228.711 35.3434 228.906 34.9365C229.102 34.5296 229.37 34.3262 229.712 34.3262C230.412 34.3262 230.762 35.2132 230.762 36.9873C230.762 38.1266 230.648 39.8193 230.42 42.0654C230.208 44.3278 230.103 46.1182 230.103 47.4365C230.103 48.7549 230.436 49.4141 231.104 49.4141C231.771 49.4141 232.104 48.4863 232.104 46.6309C232.104 45.5729 231.95 43.3675 231.641 40.0146C231.348 36.6618 231.201 34.139 231.201 32.4463V22.2374L218.488 22.7794ZM231.201 14.2301L218.504 14.7715C218.505 13.8374 218.506 12.9745 218.506 12.1826C218.506 11.1572 218.815 10.3434 219.434 9.74121L218.945 9.25293C218.229 9.98535 217.041 10.3516 215.381 10.3516L210.132 10.0342C208.455 10.0342 207.243 10.4085 206.494 11.1572L206.006 10.6445C206.624 10.026 206.934 9.22038 206.934 8.22754L207.056 5.10254C207.056 3.31217 206.706 2.0752 206.006 1.3916L206.494 0.90332C207.145 1.53809 207.951 1.85547 208.911 1.85547H240.967C241.96 1.85547 242.773 1.53809 243.408 0.90332L243.896 1.3916C243.278 2.01009 242.969 2.82389 242.969 3.83301L242.847 6.95801C242.847 8.71582 243.197 9.94466 243.896 10.6445L243.408 11.1572C242.676 10.4085 241.488 10.0342 239.844 10.0342L234.448 10.376C232.739 10.376 231.51 10.0016 230.762 9.25293L230.249 9.74121C230.884 10.3597 231.201 11.1735 231.201 12.1826V14.2301ZM253.932 21.2682C253.937 21.6493 253.943 21.9981 253.95 22.3145C254.064 27.7832 256.139 31.4941 260.176 33.4473C262.487 34.5866 265.954 35.262 270.576 35.4736V40.332C270.576 40.9993 270.438 41.9759 270.161 43.2617C269.901 44.5475 269.771 45.459 269.771 45.9961C269.771 46.5332 269.884 46.9727 270.112 47.3145C270.356 47.6562 270.682 47.8271 271.089 47.8271C271.903 47.8271 272.31 47.2005 272.31 45.9473C272.31 45.4427 272.163 44.6126 271.87 43.457C271.577 42.3014 271.431 41.4225 271.431 40.8203V39.6973C271.431 37.321 272.033 36.1328 273.237 36.1328C273.888 36.1328 274.279 36.5397 274.409 37.3535C274.474 37.7441 274.515 38.0697 274.531 38.3301C274.548 38.5905 274.556 38.8428 274.556 39.0869V39.8438C274.556 40.0879 274.442 40.6331 274.214 41.4795C274.002 42.3421 273.896 42.9606 273.896 43.335C273.896 43.7093 273.97 44.0267 274.116 44.2871C274.279 44.5638 274.515 44.7021 274.824 44.7021C275.133 44.7021 275.369 44.5719 275.532 44.3115C275.695 44.0511 275.776 43.7256 275.776 43.335C275.776 42.9443 275.671 42.277 275.459 41.333C275.264 40.4053 275.166 39.6973 275.166 39.209L275.044 37.085C275.044 35.7015 275.467 35.0098 276.313 35.0098C277.404 35.0098 277.949 35.8887 277.949 37.6465L277.803 41.626C277.803 42.7002 277.957 43.2373 278.267 43.2373C278.576 43.2373 278.73 42.9606 278.73 42.4072L278.486 39.8926V35.3271C282.018 35.0016 284.85 34.2855 286.982 33.1787C288.854 32.2184 290.295 30.778 291.304 28.8574C292.353 26.8851 292.89 23.8013 292.914 19.6062L279.982 20.1576C279.951 20.6189 279.908 21.0123 279.854 21.3379C279.788 21.7122 279.699 22.1517 279.585 22.6562C279.487 23.1608 279.349 23.584 279.17 23.9258C278.991 24.2513 278.779 24.6012 278.535 24.9756C278.307 25.3337 278.022 25.6348 277.681 25.8789C277.355 26.1068 276.981 26.3265 276.558 26.5381C276.151 26.7334 275.671 26.8799 275.117 26.9775C274.58 27.0589 273.815 27.0996 272.822 27.0996C271.846 27.0996 270.845 26.8717 269.819 26.416C269.38 26.2207 268.989 25.944 268.647 25.5859C268.306 25.2116 268.021 24.8617 267.793 24.5361C267.581 24.2106 267.394 23.7793 267.231 23.2422C267.085 22.6888 266.947 22.0866 266.816 21.4355C266.782 21.2614 266.751 21.0238 266.726 20.7228L253.932 21.2682ZM266.605 12.7206L253.911 13.2619L253.95 4.27246C253.95 3.31217 253.633 2.50651 252.998 1.85547L253.511 1.36719C254.113 1.98568 254.919 2.29492 255.928 2.29492H264.57C265.563 2.29492 266.369 1.98568 266.987 1.36719L267.5 1.85547C266.882 2.49023 266.572 3.2959 266.572 4.27246L266.605 12.7206ZM280.091 12.1456L292.779 11.6047L292.695 6.83594C292.695 4.19922 293.029 2.53906 293.696 1.85547L293.208 1.36719C292.606 1.98568 291.792 2.29492 290.767 2.29492H282.124C281.115 2.29492 280.301 1.98568 279.683 1.36719L279.219 1.85547C279.821 2.47396 280.122 3.27962 280.122 4.27246L280.091 12.1456ZM306.007 19.048L306.021 35.4004C306.021 36.2142 305.817 37.4186 305.41 39.0137C305.02 40.6087 304.824 41.7318 304.824 42.3828C304.824 43.0339 304.946 43.5466 305.19 43.9209C305.435 44.3115 305.785 44.5068 306.24 44.5068C306.696 44.5068 307.038 44.3115 307.266 43.9209C307.51 43.5466 307.632 43.0339 307.632 42.3828C307.632 41.748 307.445 40.6494 307.07 39.0869C306.696 37.5244 306.509 36.4258 306.509 35.791C306.509 35.1725 306.663 34.7005 306.973 34.375C307.673 33.6426 308.95 33.2764 310.806 33.2764C312.189 33.2764 313.361 33.5449 314.321 34.082C314.907 34.4238 315.2 34.8551 315.2 35.376L314.614 41.9922C314.614 43.0664 314.915 43.6035 315.518 43.6035C316.136 43.6035 316.445 42.985 316.445 41.748C316.445 41.1947 316.331 40.1774 316.104 38.6963C315.892 37.2152 315.786 36.1491 315.786 35.498C315.786 34.847 315.998 34.5215 316.421 34.5215C316.616 34.5215 316.787 34.6029 316.934 34.7656C317.08 34.9284 317.153 35.1074 317.153 35.3027L316.86 44.6777C316.86 44.9544 316.95 45.1986 317.129 45.4102C317.308 45.638 317.528 45.752 317.788 45.752C318.065 45.752 318.276 45.6543 318.423 45.459C318.586 45.2799 318.667 45.0602 318.667 44.7998L318.203 32.4463V18.528L306.007 19.048ZM319.76 18.4616L331.143 32.8857C331.501 33.3415 331.655 34.3262 331.606 35.8398L331.558 39.0869C331.541 39.9658 331.322 41.276 330.898 43.0176C330.492 44.7591 330.288 46.0856 330.288 46.9971C330.288 48.4294 330.817 49.1455 331.875 49.1455C332.933 49.1455 333.462 48.4375 333.462 47.0215C333.462 46.0286 333.267 44.5557 332.876 42.6025C332.502 40.6657 332.314 39.1846 332.314 38.1592C332.314 35.6689 332.998 34.4238 334.365 34.4238H344.009C344.318 34.4238 344.635 34.5296 344.961 34.7412C345.286 34.9528 345.449 35.3027 345.449 35.791C345.449 36.2956 345.295 37.207 344.985 38.5254C344.676 39.86 344.521 40.8691 344.521 41.5527C344.521 42.5944 344.92 43.1152 345.718 43.1152C346.515 43.1152 346.914 42.5944 346.914 41.5527C346.914 40.8529 346.751 39.8031 346.426 38.4033C346.1 37.0199 345.938 35.9782 345.938 35.2783L345.967 17.3443L334.261 17.8434C334.458 18.5692 334.737 19.1969 335.098 19.7266H333.633C333.45 19.2191 333.138 18.6137 332.696 17.9101L319.76 18.4616ZM326.482 10.1677L306.001 11.041L305.996 5.46875C305.996 3.54818 305.41 1.94499 304.238 0.65918L304.751 0.146484C306.069 1.31836 307.673 1.9043 309.561 1.9043H316.86C317.902 1.9043 318.781 1.78223 319.497 1.53809C320.229 1.27767 320.815 0.773112 321.255 0.0244141L322.061 0.415039C321.637 1.42415 321.426 2.3763 321.426 3.27148C321.426 4.00391 322.712 5.8431 325.283 8.78906C325.701 9.26825 326.101 9.72781 326.482 10.1677ZM334.327 9.83327L345.98 9.33644L345.986 5.46875C345.986 3.56445 346.564 1.96126 347.72 0.65918L347.231 0.146484C345.913 1.31836 344.31 1.9043 342.422 1.9043H337.417C335.529 1.9043 333.926 1.31836 332.607 0.146484L332.095 0.65918C333.787 1.45671 334.634 3.1901 334.634 5.85938C334.634 6.76812 334.532 8.09275 334.327 9.83327ZM359.604 16.7628V32.3975L359.727 40.5762C359.727 41.8132 359.458 43.6279 358.921 46.0205C358.384 48.4131 358.115 50.2197 358.115 51.4404C358.115 53.2308 358.783 54.126 360.117 54.126C361.354 54.126 361.973 53.2552 361.973 51.5137C361.973 50.3092 361.785 48.5107 361.411 46.1182C361.037 43.7419 360.85 41.9434 360.85 40.7227C360.85 37.6953 361.24 35.8561 362.021 35.2051C362.705 34.6517 363.771 34.375 365.22 34.375H384.409L386.265 34.3262C387.485 34.3262 388.096 35.7503 388.096 38.5986L387.656 46.3867C387.656 46.8424 387.77 47.2005 387.998 47.4609C388.242 47.7376 388.519 47.876 388.828 47.876C389.154 47.876 389.438 47.7295 389.683 47.4365C389.927 47.1598 390.049 46.7529 390.049 46.2158C390.049 45.6787 389.878 44.3441 389.536 42.2119C389.211 40.0798 389.048 38.4521 389.048 37.3291C389.048 34.4157 390.016 32.959 391.953 32.959C392.816 32.959 393.499 33.3252 394.004 34.0576C394.508 34.7738 394.761 35.848 394.761 37.2803L394.37 42.6758C394.37 43.278 394.476 43.75 394.688 44.0918C394.915 44.4336 395.176 44.6045 395.469 44.6045C395.762 44.6045 396.014 44.4499 396.226 44.1406C396.437 43.8314 396.543 43.3512 396.543 42.7002C396.543 42.0654 396.388 40.7633 396.079 38.7939C395.786 36.8408 395.64 35.5225 395.64 34.8389C395.64 30.4443 396.095 27.4089 397.007 25.7324L396.519 25.2441C395.9 25.8789 395.094 26.1963 394.102 26.1963L374.18 26.1719C373.594 26.1719 373.13 26.473 372.788 27.0752V27.3438L373.179 30.3711C373.179 30.9245 372.959 31.2012 372.52 31.2012C372.096 31.2012 371.885 30.9082 371.885 30.3223L372.3 27.3926L372.349 25.4883C372.349 23.7467 372.007 22.526 371.323 21.8262L371.812 21.3379C372.625 22.1517 374.285 22.5586 376.792 22.5586L387.021 22.0215C389.544 22.0215 391.196 22.4284 391.978 23.2422L392.49 22.7295C391.774 22.0133 391.416 20.7845 391.416 19.043V18.0908C391.416 17.0202 391.495 16.1221 391.653 15.3964L359.604 16.7628ZM394.817 7.25425L359.604 8.75555V3.93066C359.604 2.92155 359.295 2.11589 358.677 1.51367L359.165 1.00098C359.832 1.63574 360.646 1.95312 361.606 1.95312H392.954C393.947 1.95312 394.761 1.63574 395.396 1.00098L395.884 1.51367C395.168 2.22982 394.81 3.62956 394.81 5.71289V6.81152C394.81 6.96302 394.812 7.11059 394.817 7.25425ZM408.55 14.676V30.0781L408.574 34.1309L408.013 38.623C408.013 39.5996 408.354 40.0879 409.038 40.0879C409.738 40.0879 410.088 39.6077 410.088 38.6475L409.502 34.5947C409.502 33.667 409.697 33.2031 410.088 33.2031C410.69 33.2031 410.991 34.0332 410.991 35.6934C410.991 36.3932 410.877 37.7197 410.649 39.6729C410.422 41.626 410.308 43.0827 410.308 44.043C410.308 45.0195 410.674 45.5078 411.406 45.5078C412.139 45.5078 412.505 45.0439 412.505 44.1162C412.505 43.2048 412.358 41.8783 412.065 40.1367C411.772 38.4115 411.626 37.0605 411.626 36.084C411.626 35.1074 411.797 34.4157 412.139 34.0088C412.48 33.6019 413.091 33.3984 413.97 33.3984C419.08 33.3984 421.636 34.5947 421.636 36.9873L421.123 40.4541C421.123 41.0889 421.375 41.4062 421.88 41.4062C422.303 41.4062 422.515 41.097 422.515 40.4785L422.124 37.3535C422.124 35.4004 422.808 34.4238 424.175 34.4238H427.715C430.677 34.4238 433.257 34.3343 435.454 34.1553C436.854 34.0413 438.018 33.8786 438.945 33.667C439.873 33.4391 440.882 33.1217 441.973 32.7148C443.063 32.3079 443.958 31.8197 444.658 31.25C445.374 30.6641 446.082 29.9479 446.782 29.1016C447.498 28.2552 448.052 27.2868 448.442 26.1963C448.833 25.0895 449.15 23.8118 449.395 22.3633C449.655 20.8984 449.785 19.1569 449.785 17.1387C449.785 15.6758 449.617 14.2761 449.28 12.9394L435.845 13.5123C435.886 13.5882 435.927 13.6658 435.967 13.7451C436.455 14.7217 436.699 15.9424 436.699 17.4072C436.699 18.8558 436.561 20.1009 436.284 21.1426C436.007 22.168 435.617 23.0062 435.112 23.6572C434.624 24.292 433.794 24.8535 432.622 25.3418C431.466 25.8301 429.497 26.0742 426.714 26.0742H421.172C421.139 24.2188 421.123 21.4193 421.123 17.6758V14.1399L408.55 14.676ZM443.987 5.15786L408.55 6.66874V3.88184C408.55 2.87272 408.232 2.05892 407.598 1.44043L408.086 0.927734C408.753 1.57878 409.567 1.9043 410.527 1.9043H430.693C436.39 1.9043 440.821 2.98882 443.987 5.15786ZM462.209 12.3882L463.721 20.2637C463.883 21.0612 463.566 21.8587 462.769 22.6562L463.281 23.1689C463.916 22.5342 464.722 22.2168 465.698 22.2168H466.675C467.668 22.2168 468.481 22.5342 469.116 23.1689L469.604 22.6562C468.823 21.875 468.506 21.0775 468.652 20.2637L470.144 12.0499L462.209 12.3882ZM471.609 3.98018L460.684 4.44595L460.571 3.85742C460.571 3.80859 460.547 3.68652 460.498 3.49121C460.465 3.27962 460.433 3.10059 460.4 2.9541C460.384 2.80762 460.36 2.70996 460.327 2.66113C460.311 2.6123 460.286 2.53092 460.254 2.41699C460.221 2.30306 460.181 2.21354 460.132 2.14844L460.01 1.9043C459.945 1.77409 459.814 1.61133 459.619 1.41602L460.132 0.927734C460.767 1.5625 461.572 1.87988 462.549 1.87988H469.653C470.63 1.87988 471.436 1.5625 472.07 0.927734L472.583 1.41602C472.388 1.61133 472.257 1.76595 472.192 1.87988C472.144 1.99382 472.095 2.08333 472.046 2.14844C472.013 2.21354 471.981 2.30306 471.948 2.41699C471.916 2.53092 471.883 2.6123 471.851 2.66113C471.834 2.70996 471.81 2.80762 471.777 2.9541C471.761 3.10059 471.745 3.1901 471.729 3.22266C471.663 3.59701 471.631 3.80859 471.631 3.85742L471.609 3.98018ZM73.7988 51.3428C73.7988 50.0244 73.6035 48.4701 73.2129 46.6797C72.7897 48.3724 72.5781 49.9512 72.5781 51.416C72.5781 51.9368 72.7816 52.1973 73.1885 52.1973C73.5954 52.1973 73.7988 51.9124 73.7988 51.3428ZM125.601 38.2812C125.177 39.974 124.966 41.3818 124.966 42.5049C124.966 43.0908 125.186 43.3838 125.625 43.3838C126.081 43.3838 126.309 42.9525 126.309 42.0898C126.309 41.5039 126.073 40.2344 125.601 38.2812ZM228.564 51.3428C228.564 50.0244 228.369 48.4701 227.979 46.6797C227.555 48.3724 227.344 49.9512 227.344 51.416C227.344 51.9368 227.547 52.1973 227.954 52.1973C228.361 52.1973 228.564 51.9124 228.564 51.3428ZM278.267 49.1211C278.804 49.1211 279.072 48.7386 279.072 47.9736C279.072 47.2087 278.885 46.403 278.511 45.5566C278.381 45.2637 278.291 45.1172 278.242 45.1172C278.193 45.1172 278.047 45.3857 277.803 45.9229C277.575 46.4762 277.461 47.1436 277.461 47.9248C277.461 48.7223 277.729 49.1211 278.267 49.1211ZM421.855 50.2197C422.409 50.2197 422.686 49.8454 422.686 49.0967C422.686 48.3643 422.596 47.6156 422.417 46.8506C422.352 46.5739 422.254 46.1833 422.124 45.6787C421.994 45.1904 421.904 44.8405 421.855 44.6289C421.823 44.8079 421.717 45.2474 421.538 45.9473C421.359 46.6634 421.229 47.2493 421.147 47.7051C421.082 48.1608 421.05 48.6898 421.05 49.292C421.05 49.9105 421.318 50.2197 421.855 50.2197ZM464.355 34.4238H467.847C469.263 34.4238 470.117 34.3669 470.41 34.2529C470.703 34.1227 470.85 33.7077 470.85 33.0078V27.2949C470.85 26.5788 470.711 26.1719 470.435 26.0742C470.158 25.9603 469.295 25.9033 467.847 25.9033H464.355C462.907 25.9033 462.044 25.9603 461.768 26.0742C461.507 26.1719 461.377 26.5788 461.377 27.2949V33.0078C461.377 33.724 461.515 34.139 461.792 34.2529C462.069 34.3669 462.923 34.4238 464.355 34.4238Z" fill="white"/>
</svg>
