<svg width="269" height="54" viewBox="0 0 269 54" fill="none" xmlns="http://www.w3.org/2000/svg">
<path d="M11.8 48V18.5H0.2V13H29.9V18.5H18.3V48H11.8ZM40.7781 27.55H58.1781V32.9H40.7781V27.55ZM41.2781 42.55H61.0281V48H34.7781V13H60.3281V18.45H41.2781V42.55ZM68.2742 48V13H83.5742C87.3742 13 90.7076 13.7333 93.5742 15.2C96.4409 16.6667 98.6742 18.7 100.274 21.3C101.874 23.9 102.674 26.9667 102.674 30.5C102.674 34 101.874 37.0667 100.274 39.7C98.6742 42.3 96.4409 44.3333 93.5742 45.8C90.7076 47.2667 87.3742 48 83.5742 48H68.2742ZM74.7742 42.5H83.2742C85.9076 42.5 88.1742 42 90.0742 41C92.0076 40 93.4909 38.6 94.5242 36.8C95.5909 35 96.1242 32.9 96.1242 30.5C96.1242 28.0667 95.5909 25.9667 94.5242 24.2C93.4909 22.4 92.0076 21 90.0742 20C88.1742 19 85.9076 18.5 83.2742 18.5H74.7742V42.5Z" fill="#EB0028"/>
<path d="M153.9 48.4C151.233 48.4 148.767 47.9667 146.5 47.1C144.267 46.2 142.317 44.95 140.65 43.35C139.017 41.7167 137.733 39.8167 136.8 37.65C135.867 35.4833 135.4 33.1 135.4 30.5C135.4 27.9 135.867 25.5167 136.8 23.35C137.733 21.1833 139.033 19.3 140.7 17.7C142.367 16.0667 144.317 14.8167 146.55 13.95C148.817 13.05 151.283 12.6 153.95 12.6C156.65 12.6 159.133 13.0667 161.4 14C163.7 14.9 165.65 16.25 167.25 18.05L164 21.2C162.667 19.8 161.167 18.7667 159.5 18.1C157.833 17.4 156.05 17.05 154.15 17.05C152.183 17.05 150.35 17.3833 148.65 18.05C146.983 18.7167 145.533 19.65 144.3 20.85C143.067 22.05 142.1 23.4833 141.4 25.15C140.733 26.7833 140.4 28.5667 140.4 30.5C140.4 32.4333 140.733 34.2333 141.4 35.9C142.1 37.5333 143.067 38.95 144.3 40.15C145.533 41.35 146.983 42.2833 148.65 42.95C150.35 43.6167 152.183 43.95 154.15 43.95C156.05 43.95 157.833 43.6167 159.5 42.95C161.167 42.25 162.667 41.1833 164 39.75L167.25 42.9C165.65 44.7 163.7 46.0667 161.4 47C159.133 47.9333 156.633 48.4 153.9 48.4ZM189.3 48.4C186.634 48.4 184.167 47.9667 181.9 47.1C179.667 46.2 177.717 44.95 176.05 43.35C174.417 41.7167 173.134 39.8167 172.2 37.65C171.267 35.4833 170.8 33.1 170.8 30.5C170.8 27.9 171.267 25.5167 172.2 23.35C173.134 21.1833 174.434 19.3 176.1 17.7C177.767 16.0667 179.717 14.8167 181.95 13.95C184.217 13.05 186.684 12.6 189.35 12.6C192.05 12.6 194.534 13.0667 196.8 14C199.1 14.9 201.05 16.25 202.65 18.05L199.4 21.2C198.067 19.8 196.567 18.7667 194.9 18.1C193.234 17.4 191.45 17.05 189.55 17.05C187.584 17.05 185.75 17.3833 184.05 18.05C182.384 18.7167 180.934 19.65 179.7 20.85C178.467 22.05 177.5 23.4833 176.8 25.15C176.134 26.7833 175.8 28.5667 175.8 30.5C175.8 32.4333 176.134 34.2333 176.8 35.9C177.5 37.5333 178.467 38.95 179.7 40.15C180.934 41.35 182.384 42.2833 184.05 42.95C185.75 43.6167 187.584 43.95 189.55 43.95C191.45 43.95 193.234 43.6167 194.9 42.95C196.567 42.25 198.067 41.1833 199.4 39.75L202.65 42.9C201.05 44.7 199.1 46.0667 196.8 47C194.534 47.9333 192.034 48.4 189.3 48.4ZM214.333 28.1H232.333V32.35H214.333V28.1ZM214.783 43.65H235.183V48H209.783V13H234.483V17.35H214.783V43.65ZM250.229 48V17.35H238.229V13H267.179V17.35H255.179V48H250.229Z" fill="white"/>
<path d="M104.95 31L112.6 20.375L112.575 23.9L105.225 13.5H110.8L115.5 20.275L113.125 20.3L117.75 13.5H123.1L115.75 23.7V20.2L123.5 31H117.8L113.025 23.875H115.3L110.6 31H104.95Z" fill="#EB0028"/>
</svg>
